<svg width="38" height="38" viewBox="0 0 38 38" fill="none" xmlns="http://www.w3.org/2000/svg">
<path d="M0.0588157 7.11189C-0.0201231 6.54217 -0.0106504 5.97246 0.0588157 5.40275C0.0619732 5.33629 0.0619732 5.26982 0.0651308 5.20652C0.121967 5.15588 0.125124 5.09258 0.0967063 5.02611C0.125124 4.98497 0.137754 4.94066 0.128282 4.89318C0.270372 4.47539 0.415619 4.05444 0.557709 3.63665C0.630332 3.52587 0.699798 3.41193 0.731374 3.279C0.78821 3.24735 0.819785 3.19671 0.822943 3.13024C1.06607 2.75677 1.33131 2.40228 1.60602 2.05412C1.8081 1.91803 1.97229 1.74711 2.11754 1.55404C2.27542 1.45276 2.42066 1.34198 2.55328 1.20905C2.61959 1.20589 2.66064 1.17107 2.6859 1.11094C2.78062 1.07612 2.86272 1.02548 2.93219 0.952682C2.9985 0.952682 3.0427 0.921032 3.07428 0.860896C3.36477 0.721633 3.65211 0.585536 3.9426 0.446273C4.2773 0.344991 4.612 0.243709 4.94986 0.142428C4.99407 0.136097 5.03512 0.126602 5.07932 0.120272C5.16773 0.142428 5.24983 0.126602 5.32561 0.0759614C5.36982 0.0696313 5.41402 0.0664663 5.45823 0.0601361C5.64768 0.0696313 5.83713 0.0696313 6.02027 0.0126603C6.14973 0.0348157 6.28235 0.0348157 6.41181 0.0126603C6.59494 0.0664663 6.7844 0.0759614 6.97385 0.053806C7.037 0.0854566 7.10015 0.0917867 7.16646 0.0791264C7.24224 0.132932 7.3275 0.142428 7.41591 0.126602C7.46011 0.132932 7.50116 0.139263 7.54537 0.148758C7.5801 0.183573 7.62115 0.199399 7.66851 0.177243C7.7064 0.205729 7.75061 0.215224 7.79797 0.208894C7.8327 0.243709 7.87375 0.259535 7.92112 0.240544C7.95901 0.272195 8.00321 0.28169 8.04742 0.27536C8.13899 0.344991 8.24634 0.373477 8.36002 0.382972C8.40422 0.414623 8.45158 0.430448 8.50842 0.427283C8.54947 0.484254 8.60631 0.509574 8.67577 0.506409C9.08625 0.702643 9.48095 0.930527 9.86617 1.17107C9.89143 1.23121 9.93563 1.26602 10.0019 1.27235C10.4408 1.64899 10.8545 2.05096 11.2208 2.49407C11.2271 2.56053 11.2618 2.60484 11.3218 2.63016C11.5239 2.98465 11.726 3.33914 11.928 3.69362C12.048 4.02912 12.168 4.36461 12.2849 4.70011C12.2785 4.74759 12.2849 4.7919 12.3164 4.82988C12.2912 4.89951 12.307 4.95965 12.3575 5.01345C12.348 5.06093 12.3543 5.10524 12.3827 5.14638C12.3543 5.23501 12.3669 5.3173 12.4206 5.39326C12.408 5.44073 12.4143 5.48504 12.4396 5.52619C12.4269 5.79839 12.4206 6.07058 12.4869 6.33961C12.4617 6.49153 12.4585 6.64346 12.509 6.78905C12.4743 6.91882 12.4806 7.04225 12.5501 7.15936C12.5375 7.20684 12.5438 7.25115 12.5722 7.29229C12.5943 7.70692 12.6953 8.09938 12.8943 8.46336C12.8911 8.5235 12.91 8.57731 12.9543 8.61845C12.9353 8.68808 12.9669 8.73556 13.0237 8.77354C13.0648 8.95078 13.1532 9.10271 13.2511 9.2483C13.2511 9.31476 13.2826 9.36541 13.3426 9.39706C13.3489 9.46669 13.3868 9.52049 13.4374 9.56481C13.4405 9.63127 13.4721 9.67875 13.5352 9.70723C13.5352 9.72939 13.5447 9.74521 13.5637 9.75471C13.57 9.82117 13.6047 9.86549 13.6647 9.89397C13.671 9.94461 13.6994 9.98259 13.7468 10.0047C13.7531 10.0744 13.7942 10.1187 13.8542 10.144C13.8984 10.2421 13.9647 10.3276 14.0594 10.3846C14.072 10.451 14.1099 10.4953 14.1762 10.5112C14.2173 10.5966 14.2804 10.6599 14.3657 10.7042C14.4194 10.8182 14.4983 10.9036 14.6246 10.9416C15.1424 11.4417 15.7455 11.8025 16.4276 12.0399C16.5854 12.157 16.7623 12.214 16.958 12.2266C16.9959 12.2583 17.0401 12.2709 17.0906 12.2646C17.1222 12.3057 17.1633 12.3184 17.2138 12.2962C17.2517 12.3247 17.2959 12.3342 17.3464 12.3279C17.378 12.3722 17.419 12.3785 17.4664 12.3564C17.5074 12.3849 17.5548 12.3944 17.6022 12.3817C17.6937 12.4577 17.7979 12.4577 17.9084 12.4292C17.9495 12.4545 17.9969 12.4608 18.0442 12.4482C18.48 12.5463 18.9157 12.5463 19.3514 12.4513C19.4209 12.4672 19.4872 12.464 19.5472 12.426C19.6356 12.4545 19.7209 12.4545 19.7935 12.388C19.863 12.4007 19.9293 12.3912 19.9893 12.3501C20.0366 12.3754 20.0777 12.369 20.1093 12.3247C20.1566 12.3311 20.2008 12.3216 20.2419 12.2931C20.2892 12.3152 20.3303 12.3057 20.3619 12.2646C20.4124 12.2709 20.4566 12.2551 20.4945 12.2235C20.6271 12.2361 20.7408 12.195 20.8387 12.1032C21.287 11.9766 21.6944 11.7708 22.0733 11.5018C22.1396 11.4987 22.1869 11.4607 22.2153 11.4037C22.2374 11.4037 22.2532 11.3974 22.2627 11.3784C22.329 11.3721 22.3732 11.3372 22.3985 11.2771C22.449 11.2708 22.4869 11.2423 22.5122 11.1948C22.5785 11.1853 22.6227 11.1473 22.6448 11.084C23.1942 10.6789 23.6331 10.1725 23.9741 9.58063C24.0309 9.54898 24.072 9.50783 24.0688 9.43504C24.1446 9.34958 24.2046 9.25463 24.2267 9.13752C24.2835 9.10587 24.3151 9.0584 24.3056 8.99193C24.3688 8.90964 24.4162 8.82102 24.4225 8.71657C24.4793 8.67542 24.5109 8.62162 24.5046 8.54882C24.5361 8.50451 24.5551 8.45387 24.5488 8.40006C24.6403 8.29878 24.6814 8.17851 24.6719 8.04558C24.7067 8.0076 24.7161 7.96645 24.713 7.91581C24.7887 7.80187 24.8203 7.67527 24.8014 7.53917C24.833 7.50119 24.8393 7.45688 24.833 7.40623C24.8835 7.33027 24.8993 7.24798 24.8677 7.15936C24.9056 7.09922 24.9119 7.03276 24.8961 6.96629C24.9593 6.80171 24.9719 6.63713 24.9277 6.46621C24.9782 6.27631 24.9687 6.08324 24.9498 5.89017C25.0098 5.75091 25.0098 5.60215 24.9845 5.45656C25.0224 5.39642 25.0319 5.32996 25.0193 5.26033C25.0698 5.20652 25.0761 5.14322 25.0477 5.07675C25.0761 5.03561 25.0856 4.9913 25.0761 4.94382C25.1234 4.91217 25.1329 4.87419 25.1013 4.82671C25.1045 4.79506 25.1108 4.76341 25.114 4.73176C25.2308 4.54819 25.2782 4.33929 25.3066 4.12723C25.3508 4.08292 25.3666 4.02912 25.3666 3.96582C25.4171 3.92784 25.4518 3.88036 25.4329 3.81073C25.4771 3.76958 25.496 3.71894 25.496 3.65881C25.5529 3.61766 25.5876 3.56702 25.5813 3.49422C25.676 3.36446 25.755 3.22519 25.8055 3.07011C25.8623 3.03846 25.9002 2.99414 25.9002 2.92451C25.9192 2.91185 25.9286 2.89603 25.9286 2.87387C25.9886 2.84855 26.0234 2.80108 26.0234 2.73461C26.0423 2.72195 26.0549 2.70612 26.0549 2.68397C26.1149 2.65865 26.1497 2.61117 26.1591 2.54787C26.197 2.51622 26.2318 2.48141 26.2444 2.4276C26.3044 2.40228 26.3423 2.36113 26.3549 2.29467C26.6517 1.99715 26.9517 1.69964 27.2485 1.39896C27.3179 1.38946 27.3622 1.35148 27.3874 1.28818C27.8263 0.987498 28.2842 0.718468 28.7641 0.487419C28.8336 0.493749 28.8873 0.468429 28.9283 0.411458C28.9851 0.414623 29.0357 0.398797 29.0799 0.367147C29.1935 0.360817 29.3009 0.329166 29.3925 0.259535C29.4398 0.265865 29.484 0.25637 29.5219 0.221554C29.5693 0.240544 29.6103 0.224719 29.6451 0.189903C29.6924 0.196234 29.7366 0.186738 29.7745 0.158253C29.8219 0.180408 29.8629 0.164583 29.8977 0.129767C29.9419 0.123437 29.9829 0.117107 30.0271 0.110777C30.1155 0.126602 30.1976 0.113942 30.2734 0.0633012C30.3397 0.0759614 30.406 0.0727964 30.4692 0.0379807C30.6397 0.0633012 30.8039 0.053806 30.9681 0C31.1196 0.0221554 31.2712 0.0221554 31.4228 0C31.587 0.053806 31.7543 0.0633012 31.9217 0.0379807C31.9817 0.0696313 32.048 0.0759614 32.1143 0.0633012C32.19 0.113942 32.2753 0.126602 32.3637 0.107612C32.4079 0.113942 32.449 0.123437 32.4932 0.129767C32.61 0.199399 32.7363 0.221554 32.8689 0.218389C32.9068 0.25004 32.951 0.2627 32.9984 0.25637C33.09 0.326001 33.1973 0.354486 33.311 0.363982C33.3552 0.398797 33.4057 0.411458 33.4625 0.408293C33.5036 0.465264 33.5573 0.490584 33.6267 0.481089C33.9362 0.642507 34.2488 0.80709 34.5582 0.968508C34.5866 1.02864 34.634 1.06029 34.7003 1.06346C35.1866 1.42744 35.6286 1.8389 36.0391 2.28517C36.0486 2.3548 36.0865 2.39911 36.1465 2.42443C36.1591 2.47508 36.1907 2.51306 36.2349 2.54154C36.238 2.60801 36.2759 2.65232 36.3359 2.6808C36.3359 2.70296 36.3454 2.72195 36.3675 2.73144C36.3675 2.79791 36.4054 2.84222 36.4622 2.87071C36.4622 2.89286 36.4717 2.91185 36.4906 2.92135C36.4906 2.99098 36.5285 3.03529 36.5854 3.07011C36.7085 3.31698 36.8348 3.56069 36.958 3.80756C36.9422 3.8772 36.9706 3.92467 37.0243 3.96265C37.0243 4.02279 37.0369 4.07976 37.0811 4.12407C37.0811 4.257 37.119 4.38044 37.2074 4.48172C37.2011 4.57984 37.2169 4.67163 37.2705 4.75708C37.2484 4.80456 37.2642 4.8457 37.2958 4.88052C37.3053 4.92483 37.3148 4.96598 37.3211 5.01029C37.299 5.09891 37.3179 5.1812 37.3653 5.25716C37.3716 5.30147 37.3779 5.34578 37.3842 5.38693C37.3621 5.5167 37.3811 5.64013 37.4253 5.76357C37.4253 6.08324 37.4253 6.40291 37.4253 6.72258C37.3779 6.86501 37.359 7.0106 37.3779 7.16253C37.3716 7.20684 37.3653 7.24798 37.359 7.29229C37.3179 7.34926 37.299 7.4094 37.3274 7.47903C37.299 7.51701 37.2927 7.56132 37.299 7.6088C37.1979 7.92214 37.0843 8.23232 37.0148 8.55515C36.9706 8.5963 36.9548 8.6501 36.958 8.71024C36.8253 8.86849 36.7432 9.05206 36.6896 9.25146C36.5285 9.5015 36.3706 9.75154 36.2096 10.0016C36.1465 10.0269 36.1086 10.0712 36.1023 10.1408C35.8875 10.3751 35.6728 10.6093 35.4581 10.8403C35.3918 10.853 35.3476 10.891 35.3287 10.9574C34.994 11.198 34.6561 11.4385 34.3214 11.6791C34.2551 11.6822 34.2046 11.7139 34.1698 11.7708C34.0404 11.8025 33.9299 11.8721 33.8162 11.9386C33.5573 12.0209 33.3047 12.1127 33.0615 12.2361C33.0142 12.2329 32.97 12.2424 32.9321 12.2741C32.7995 12.2709 32.6732 12.2899 32.5595 12.369C32.5121 12.3595 32.4679 12.369 32.4269 12.3975C32.3606 12.3722 32.2974 12.3754 32.2437 12.4323C32.1743 12.4197 32.108 12.426 32.048 12.464C31.9217 12.4387 31.7954 12.4323 31.6785 12.502C31.3375 12.5115 30.9997 12.521 30.6586 12.5305C30.4281 12.4956 30.1976 12.483 29.9734 12.5621C29.8408 12.5336 29.7145 12.5589 29.5882 12.5906C29.4619 12.5621 29.3356 12.5526 29.2156 12.6222C29.102 12.6001 28.9978 12.6317 28.8904 12.6602C28.8052 12.6254 28.7262 12.6317 28.6599 12.7045C28.5873 12.6792 28.5178 12.695 28.4484 12.7204C28.3631 12.6887 28.2842 12.6982 28.2178 12.771C28.0379 12.7647 27.8579 12.7773 27.6905 12.8501C27.6463 12.8311 27.6053 12.8343 27.5706 12.8691C27.2453 12.9103 26.9264 12.9736 26.6201 13.0875C26.5728 13.0654 26.5317 13.0812 26.497 13.116C26.4496 13.1097 26.4054 13.1192 26.3675 13.154C26.3202 13.135 26.2791 13.1508 26.2444 13.1825C26.197 13.1793 26.1528 13.1888 26.1149 13.2236C25.8686 13.2426 25.6413 13.3249 25.4234 13.4325C25.3761 13.4293 25.3319 13.4388 25.294 13.4737C25.2245 13.4547 25.1708 13.48 25.1298 13.5338C25.0729 13.5275 25.0256 13.5464 24.9782 13.5749C24.7856 13.6129 24.5961 13.6636 24.4383 13.787C24.3783 13.7807 24.3277 13.7997 24.2835 13.8408C24.2109 13.825 24.1636 13.8598 24.1225 13.9136C24.0625 13.9104 24.012 13.9294 23.9678 13.9706C23.8478 13.9642 23.7594 14.0212 23.6805 14.1035C23.6205 14.1035 23.5668 14.1193 23.5257 14.1636C23.4089 14.1573 23.3236 14.2143 23.2479 14.2934C23.0332 14.3599 22.8342 14.4675 22.6416 14.5846C22.5311 14.6004 22.4364 14.6479 22.3638 14.7365C22.209 14.7808 22.0764 14.8663 21.947 14.9612C21.8775 14.9612 21.8301 14.996 21.7985 15.053C21.7291 15.0593 21.6786 15.0973 21.6312 15.148C21.5617 15.148 21.5144 15.1859 21.4796 15.2429C21.4102 15.2524 21.3597 15.2904 21.3154 15.341C21.246 15.341 21.2018 15.3759 21.1702 15.436C20.5955 15.7715 20.0524 16.1545 19.5504 16.5944C19.4809 16.6039 19.4399 16.6419 19.4146 16.7052C19.3136 16.7495 19.2283 16.8128 19.1715 16.9077C19.102 16.9204 19.061 16.9584 19.0357 17.0217C18.9125 17.0881 18.8115 17.1799 18.7294 17.2907C18.6347 17.316 18.5715 17.3762 18.5368 17.468C18.1642 17.7686 17.8295 18.1041 17.5232 18.4744C17.4127 18.5314 17.3243 18.6137 17.2833 18.7371C17.1664 18.8131 17.0843 18.9207 17.0149 19.041C16.9517 19.0663 16.9107 19.1106 16.898 19.1771C16.7181 19.3385 16.5696 19.5252 16.4433 19.7341C16.3834 19.7595 16.3455 19.8038 16.336 19.8734C16.2223 19.9778 16.1307 20.1013 16.0644 20.2405C16.0044 20.2659 15.9666 20.3102 15.9634 20.3798C15.7108 20.69 15.4835 21.016 15.3066 21.3736C15.2466 21.4021 15.2151 21.4496 15.2119 21.5192C15.0982 21.6712 14.9877 21.8262 14.9309 22.0098C14.8709 22.0383 14.8425 22.0858 14.8488 22.1522C14.6057 22.5415 14.3846 22.9467 14.2299 23.3803C13.9078 23.9247 13.6963 24.5165 13.5163 25.1211C13.4721 25.2002 13.431 25.2825 13.4342 25.3774C13.3963 25.4122 13.3805 25.4502 13.3932 25.5009C13.3489 25.5642 13.33 25.6338 13.3426 25.7098C13.1942 25.9566 13.1279 26.2257 13.1027 26.5105C13.0711 26.5485 13.0585 26.596 13.0648 26.6435C13.0237 26.6751 13.0142 26.7163 13.0395 26.7637C13.0111 26.8049 12.9985 26.8492 13.0048 26.8967C12.929 27.0328 12.8879 27.1752 12.91 27.3303C12.8816 27.3714 12.8722 27.4157 12.8785 27.4632C12.8216 27.5138 12.8185 27.5771 12.8437 27.6468C12.8153 27.6879 12.8058 27.7322 12.8153 27.7829C12.7585 27.8335 12.7553 27.8968 12.7837 27.9633C12.7459 28.0234 12.7364 28.0899 12.749 28.1595C12.6827 28.2323 12.6827 28.3178 12.708 28.4064C12.6827 28.4475 12.6764 28.495 12.689 28.5425C12.6196 28.6374 12.6227 28.7419 12.648 28.8495C12.6132 28.9128 12.6069 28.9793 12.6227 29.0457C12.5532 29.1628 12.5532 29.2894 12.5817 29.416C12.5438 29.4983 12.5375 29.587 12.5564 29.6756C12.4869 29.8592 12.4869 30.0459 12.5217 30.2358C12.4648 30.489 12.4711 30.7454 12.4932 31.0017C12.4301 31.3119 12.4396 31.6284 12.4522 31.9418C12.4175 32.0051 12.4112 32.0684 12.4269 32.138C12.3701 32.214 12.3606 32.2962 12.3827 32.3849C12.3575 32.426 12.3512 32.4703 12.3606 32.5146C12.2438 32.8913 12.127 33.2711 12.0101 33.6477C11.887 33.8946 11.767 34.1415 11.6439 34.3884C11.5839 34.4168 11.5523 34.4643 11.5523 34.5308C11.4797 34.6004 11.4292 34.6827 11.3944 34.7777C11.3344 34.803 11.2997 34.8441 11.2965 34.9106C11.145 35.0657 11.0155 35.2398 10.8892 35.4138C10.8008 35.4518 10.7377 35.5119 10.7061 35.6069C10.5166 35.781 10.3272 35.9519 10.1346 36.126C10.0651 36.1323 10.0209 36.1703 9.99879 36.2336C9.79039 36.3697 9.58199 36.5089 9.37359 36.645C9.30728 36.6482 9.25992 36.6767 9.22834 36.7337C9.05468 36.7875 8.8968 36.8761 8.74208 36.9647C8.67261 36.9615 8.61894 36.9869 8.57789 37.0438C8.52105 37.0438 8.47053 37.0565 8.42632 37.0945C8.2495 37.123 8.08215 37.1736 7.92427 37.2591C7.87691 37.2527 7.83271 37.2622 7.79481 37.2939C7.74745 37.2717 7.7064 37.2875 7.67167 37.3224C7.62431 37.316 7.58326 37.3224 7.54221 37.3477C7.47274 37.3255 7.41275 37.3414 7.35591 37.3857C7.31171 37.392 7.2675 37.3983 7.22646 37.4047C7.1191 37.3888 7.01174 37.3888 6.91702 37.4521C6.8286 37.4363 6.74335 37.4395 6.6581 37.4711C6.38339 37.449 6.10868 37.4458 5.83398 37.4743C5.74872 37.4363 5.66347 37.4363 5.57506 37.4521C5.47717 37.3952 5.37297 37.3857 5.26562 37.411C5.22457 37.3857 5.18036 37.3793 5.133 37.3857C4.90881 37.3097 4.68147 37.2496 4.44465 37.2274C4.31519 37.1641 4.18573 37.1103 4.04049 37.1008C3.99944 37.0438 3.94576 37.0185 3.87629 37.0248C3.32057 36.7716 2.79641 36.4615 2.30383 36.1006C2.28173 36.0373 2.23753 35.9962 2.17122 35.9867C1.69758 35.5341 1.24921 35.0562 0.911354 34.4896C0.841888 34.3725 0.769265 34.2586 0.699798 34.1446C0.65875 33.9896 0.598757 33.844 0.485085 33.7237C0.488243 33.6667 0.469297 33.6192 0.434564 33.5749C0.380886 33.3344 0.308262 33.1033 0.197748 32.8849C0.204063 32.8375 0.19459 32.7932 0.163015 32.752C0.188275 32.7045 0.178803 32.6634 0.134597 32.6317C0.14407 32.5843 0.134597 32.54 0.103021 32.4988C0.125124 32.4102 0.125124 32.3279 0.0588157 32.2551C0.0588157 32.2108 0.0556581 32.1633 0.0556581 32.119C-0.0169655 31.5271 -0.0201231 30.9384 0.0556581 30.3466C0.0588157 30.2801 0.0619732 30.2168 0.0651308 30.1503C0.121967 30.0965 0.125124 30.0364 0.0998638 29.9668C0.128282 29.9256 0.137754 29.8813 0.131439 29.8338C0.172487 29.8022 0.18196 29.761 0.1567 29.7136C0.188275 29.6756 0.200905 29.6281 0.191433 29.5806C0.235638 29.549 0.248269 29.511 0.223008 29.4604C0.292474 29.3306 0.342995 29.1977 0.352468 29.0489C0.516661 28.7799 0.636647 28.4887 0.753477 28.1943C1.07239 27.6848 1.4134 27.1942 1.84915 26.7732C3.02691 25.6306 4.43518 25.0198 6.07079 24.9818C7.1633 24.9565 8.2053 24.7666 9.16519 24.2317C11.0471 23.1809 12.1522 21.5857 12.4143 19.4398C12.8216 16.1101 10.4598 12.9419 6.92333 12.5305C6.54758 12.4862 6.16552 12.502 5.78977 12.4672C3.43739 12.2424 1.71653 11.0777 0.62086 8.97927C0.576654 8.89698 0.532448 8.81152 0.488243 8.72923C0.365098 8.35259 0.245111 7.97595 0.121967 7.5993C0.131439 7.54866 0.118809 7.50435 0.0903912 7.46321C0.118809 7.39674 0.115652 7.3366 0.0588157 7.2828C0.0619732 7.24482 0.0588157 7.17835 0.0588157 7.11189ZM31.167 9.38756C32.8879 9.39389 34.293 8.00443 34.2993 6.28897C34.3088 4.55452 32.9068 3.14607 31.1765 3.14607C29.4588 3.14607 28.0631 4.54502 28.06 6.26365C28.06 7.98228 29.4493 9.38123 31.167 9.38756ZM3.11532 6.27314C3.11848 7.9981 4.50465 9.3844 6.22551 9.38756C7.95269 9.39073 9.36096 7.97594 9.34833 6.24782C9.3357 4.53236 7.93375 3.1429 6.21604 3.14607C4.50149 3.14923 3.11532 4.54819 3.11532 6.27314ZM3.11532 31.2296C3.11217 32.9641 4.4857 34.3567 6.20341 34.363C7.94322 34.3694 9.35464 32.9704 9.34833 31.2454C9.34201 29.53 7.94006 28.1184 6.23498 28.1184C4.52043 28.1184 3.11848 29.5142 3.11532 31.2296Z" fill="#3649B8"/>
<path d="M37.4226 27.7671C37.4005 33.3977 32.8536 37.9269 27.2363 37.9047C21.6412 37.8857 17.1227 33.3217 17.1417 27.7101C17.1606 22.1111 21.7233 17.5819 27.3248 17.6009C32.9042 17.6199 37.4416 22.1902 37.4226 27.7671ZM20.274 27.7512C20.2708 31.6348 23.3936 34.7682 27.2711 34.7745C31.1265 34.7808 34.2872 31.6791 34.2966 27.7734C34.3061 23.8614 31.1738 20.7501 27.3121 20.7311C23.4157 20.7185 20.274 23.855 20.274 27.7512Z" fill="#3649B8"/>
</svg>
