<svg width="164" height="40" viewBox="0 0 164 40" fill="none" xmlns="http://www.w3.org/2000/svg">
<g clip-path="url(#clip0_3_4070)">
<path d="M164 35.8032C162.604 35.8032 161.209 35.8032 159.797 35.8032C159.87 36.4267 160.227 36.8192 160.726 37.0503C161.354 37.3414 162.004 37.3288 162.633 36.9964C162.756 36.93 162.86 36.8509 162.958 36.7527C163.116 36.6008 163.119 36.604 163.283 36.7591C163.315 36.7876 163.343 36.8192 163.372 36.8477C163.732 37.2338 163.732 37.3351 163.315 37.6453C162.914 37.946 162.462 38.1105 161.951 38.1517C161.54 38.1833 161.136 38.1738 160.748 38.0694C159.725 37.794 159.052 37.1452 158.787 36.1071C158.544 35.1512 158.8 34.2967 159.406 33.5529C159.741 33.1446 160.208 32.923 160.719 32.7964C161.528 32.597 162.279 32.7205 162.961 33.1984C163.489 33.5687 163.836 34.0656 163.934 34.7176C163.943 34.7714 163.95 34.8221 163.997 34.8569C164 35.1702 164 35.4867 164 35.8032ZM161.401 35.0436C161.78 35.0436 162.156 35.0499 162.535 35.0404C162.696 35.0373 162.933 35.1227 162.999 34.9835C163.072 34.8315 162.955 34.6227 162.879 34.4517C162.857 34.4043 162.825 34.3631 162.797 34.3188C162.544 33.9042 162.159 33.6921 161.698 33.6162C160.934 33.4896 160.018 33.8662 159.816 34.8252C159.775 35.0278 159.775 35.0404 159.987 35.0404C160.457 35.0468 160.931 35.0436 161.401 35.0436Z" fill="#3649B8"/>
<path d="M64.5213 3.07969C64.3444 3.3234 64.3002 3.55762 64.2181 3.76968C63.8171 4.80782 63.4603 5.86178 63.0404 6.89042C62.7372 7.64054 62.4752 8.40332 62.1594 9.15028C61.9068 9.74531 61.7047 10.3657 61.4774 10.9733C61.3258 11.3753 61.1711 11.7741 61.0164 12.1761C60.9943 12.233 60.9659 12.2963 60.9217 12.3375C60.8111 12.4546 60.6627 12.4008 60.5901 12.2235C60.3565 11.6602 60.1228 11.1 59.8891 10.5397C59.4597 9.51426 59.0334 8.48878 58.604 7.4633C58.1462 6.37135 57.682 5.27941 57.2242 4.1843C57.06 3.78867 56.9021 3.38987 56.7411 2.99107C56.7158 2.92461 56.7032 2.84865 56.6179 2.82332C56.5295 2.86764 56.5579 2.94993 56.5579 3.01639C56.5548 5.49147 56.5516 7.96654 56.5611 10.4416C56.5611 10.7518 56.6179 11.0651 56.7095 11.369C56.7884 11.638 56.9589 11.8216 57.2273 11.9134C57.4357 11.9862 57.6441 12.0526 57.8651 12.0811C57.9725 12.0938 58.0072 12.1507 58.0072 12.2489C58.0041 12.3565 57.9472 12.3976 57.8462 12.3976C57.7294 12.3976 57.6094 12.4166 57.4989 12.3913C56.9558 12.2742 56.4095 12.3565 55.8664 12.3375C55.6707 12.3312 55.478 12.4229 55.276 12.3976C55.1812 12.385 55.1118 12.3691 55.1086 12.2552C55.1054 12.1571 55.1402 12.1064 55.2349 12.0685C55.3738 12.0178 55.5191 12.0083 55.6549 11.9355C55.8506 11.8311 55.9959 11.695 56.0559 11.4766C56.1222 11.2329 56.1822 10.9923 56.1822 10.736C56.1822 8.09315 56.1822 5.44716 56.1822 2.80433C56.1822 2.74103 56.1853 2.67773 56.179 2.61443C56.1411 2.21247 55.9422 2.00357 55.5443 1.96876C55.437 1.95926 55.3423 1.91495 55.2381 1.90229C55.1023 1.88647 55.0991 1.79152 55.1149 1.6934C55.1339 1.57946 55.2286 1.57946 55.3107 1.59212C56.0622 1.71872 56.82 1.63643 57.5747 1.63959C57.8841 1.63959 58.1998 1.58579 58.5124 1.58262C58.7177 1.57946 58.8282 1.64909 58.9103 1.85165C59.3681 2.96892 59.8607 4.07036 60.3059 5.19079C60.7796 6.39034 61.2942 7.57408 61.7837 8.77047C61.8026 8.81478 61.7963 8.88757 61.8658 8.88757C61.9447 8.89074 61.9636 8.82427 61.9857 8.76414C62.1752 8.2514 62.3647 7.74182 62.5573 7.23225C62.8225 6.53594 63.0972 5.84279 63.3624 5.14964C63.5835 4.57044 63.7982 3.99123 64.0161 3.41203C64.2087 2.90245 64.4013 2.38971 64.5907 1.88014C64.6476 1.72505 64.7423 1.64592 64.9191 1.64909C65.3296 1.65858 65.7401 1.63643 66.1506 1.65542C66.7094 1.6839 67.2589 1.58579 67.8146 1.58895C67.8777 1.58895 67.9409 1.58895 68.004 1.58895C68.083 1.58895 68.1556 1.60161 68.1651 1.69973C68.1746 1.79468 68.1367 1.86748 68.0419 1.8928C67.9314 1.92128 67.8177 1.95926 67.7041 1.95926C67.322 1.96243 67.0694 2.26627 67.0378 2.69672C67.0315 2.76952 67.0347 2.84548 67.0347 2.91828C67.0347 5.63706 67.0347 8.35268 67.0347 11.0715C67.0347 11.2297 67.0663 11.3816 67.0852 11.5367C67.1231 11.8184 67.3062 11.9355 67.5336 12.002C67.6725 12.04 67.8114 12.0969 67.963 12.0843C68.0293 12.078 68.0893 12.1001 68.1303 12.1539C68.203 12.2457 68.1588 12.385 68.0451 12.3913C67.7925 12.4008 67.5367 12.4166 67.2904 12.3786C67.1231 12.3533 66.9589 12.3375 66.7915 12.3343C66.16 12.3343 65.5285 12.3407 64.897 12.3312C64.4865 12.3248 64.0855 12.4293 63.675 12.4008C63.413 12.3818 63.3688 12.3723 63.3751 12.2299C63.3877 12.0241 63.5487 12.0874 63.6593 12.0843C63.8203 12.078 63.9718 12.04 64.1171 11.9862C64.4329 11.8691 64.5686 11.6 64.5623 11.293C64.5465 10.736 64.6412 10.1852 64.6381 9.62503C64.6255 7.65637 64.6318 5.68454 64.6349 3.71587C64.6381 3.51331 64.6034 3.32657 64.5213 3.07969Z" fill="#3649B8"/>
<path d="M60.9661 21.6965C61.0766 21.8643 61.1903 21.8643 61.304 21.8801C61.7113 21.9371 62.1123 22.0479 62.4565 22.2663C63.0091 22.6144 63.3627 23.1177 63.5048 23.7728C63.6595 24.4881 63.7732 25.2129 63.9942 25.9124C64.0132 25.9725 64.0321 26.0327 64.0605 26.0896C64.2594 26.4789 64.5657 26.5644 64.9415 26.3334C65.0709 26.2542 65.2257 26.0865 65.3425 26.2732C65.4372 26.422 65.2193 26.5169 65.1215 26.5992C64.6636 26.9727 64.1395 27.1942 63.5364 27.1879C63.2332 27.1848 62.9333 27.1753 62.6333 27.1025C61.8881 26.9221 61.5124 26.4251 61.3577 25.7098C61.1745 24.8521 61.0798 23.9754 60.8493 23.124C60.7483 22.7505 60.6377 22.377 60.3441 22.089C60.2304 21.9782 60.1041 21.9054 59.962 21.8896C59.6178 21.8516 59.2768 21.7852 58.9295 21.8105C58.6801 21.8295 58.6485 21.8516 58.6453 22.1175C58.6422 22.4973 58.6453 22.8771 58.6453 23.2537C58.6453 23.9817 58.6548 24.7065 58.6422 25.4345C58.639 25.6813 58.6958 25.9124 58.7211 26.1529C58.7495 26.403 59.0179 26.5961 59.3274 26.6119C59.4568 26.6182 59.5768 26.634 59.6936 26.6847C59.7663 26.7132 59.782 26.7701 59.7726 26.8366C59.7631 26.8967 59.7189 26.9252 59.6621 26.9284C59.5989 26.9315 59.5358 26.9315 59.4726 26.9315C58.1275 26.9315 56.7792 26.9315 55.4341 26.9315C55.3804 26.9315 55.3299 26.9315 55.2762 26.9315C55.1973 26.9315 55.131 26.9126 55.1215 26.8144C55.1152 26.7227 55.1689 26.6783 55.2415 26.653C55.2983 26.634 55.3646 26.6182 55.4246 26.6182C55.9267 26.6277 56.1982 26.2764 56.1919 25.789C56.1761 24.5356 56.1856 23.2822 56.1856 22.0289C56.1856 20.5128 56.1856 18.9936 56.1856 17.4775C56.1856 17.4047 56.1887 17.3288 56.1856 17.256C56.1572 16.7717 55.933 16.5565 55.393 16.5027C55.2794 16.49 55.112 16.5502 55.1183 16.3444C55.1247 16.1165 55.3078 16.1893 55.4246 16.1893C57.0981 16.1862 58.7716 16.1609 60.442 16.1957C61.345 16.2147 62.226 16.4077 63.0122 16.911C63.7669 17.3952 64.1205 18.4207 63.9753 19.2151C63.8584 19.8576 63.5964 20.383 63.1354 20.8261C62.7438 21.1996 62.2733 21.418 61.7618 21.5541C61.5124 21.6206 61.2756 21.7155 60.9661 21.6965ZM58.639 19.3987C58.639 20.0412 58.6358 20.6837 58.639 21.3231C58.639 21.5446 58.6516 21.5541 58.8727 21.5573C59.1663 21.5604 59.4568 21.5351 59.7473 21.5035C60.5304 21.4212 61.0514 21.0382 61.285 20.2786C61.3608 20.0381 61.3924 19.7912 61.4334 19.5411C61.5408 18.905 61.4745 18.2878 61.2882 17.6832C61.1429 17.2085 60.8872 16.8129 60.3883 16.6135C59.9778 16.4489 59.5673 16.4837 59.1505 16.5343C58.92 16.5628 58.7779 16.7179 58.7306 16.9458C58.6832 17.18 58.6295 17.4142 58.6327 17.6579C58.6453 18.2403 58.639 18.8195 58.639 19.3987Z" fill="#3649B8"/>
<path d="M77.0095 17.4522C77.0095 18.1865 77.0032 18.7657 77.0127 19.3449C77.0158 19.5475 76.9495 19.7374 76.9463 19.9368C76.9463 19.9874 76.9369 20.0476 77 20.0697C77.06 20.0919 77.1042 20.0476 77.1295 20.0064C77.2526 19.807 77.42 19.6488 77.5905 19.4905C77.9631 19.1487 78.3925 18.9588 78.904 18.8891C79.2892 18.8385 79.6524 18.8796 80.0155 18.9651C80.4986 19.0822 80.8712 19.3702 81.1933 19.75C81.7111 20.3641 81.8879 21.0889 82.0047 21.8548C82.0868 22.3897 82.0774 22.9278 82.049 23.4595C81.9953 24.4501 81.7363 25.3965 81.0669 26.1561C80.7386 26.5264 80.3123 26.8176 79.8197 26.9759C79.0398 27.2227 78.263 27.286 77.48 26.9917C77.3126 26.9284 77.1326 26.8714 77.0063 26.7511C76.8548 26.6087 76.6874 26.5961 76.5106 26.6182C75.9896 26.6878 75.4781 26.805 75.036 27.1088C74.9476 27.1689 74.875 27.2006 74.7834 27.1246C74.6982 27.055 74.7045 26.979 74.7203 26.8746C74.7708 26.5011 74.8087 26.1276 74.8055 25.7478C74.7992 22.8106 74.7992 19.8735 74.8024 16.9363C74.8024 16.6704 74.7582 16.4141 74.6919 16.1609C74.6003 15.8064 74.3982 15.5595 73.9972 15.5468C73.9435 15.5468 73.893 15.5373 73.8519 15.4994C73.8014 15.4519 73.7888 15.3918 73.8014 15.3253C73.8141 15.2683 73.8583 15.2398 73.9151 15.2367C73.9467 15.2335 73.9782 15.2335 74.0098 15.2335C74.0824 15.2335 74.1582 15.2303 74.2309 15.2335C75.0802 15.2557 75.9296 15.2272 76.7664 15.0879C76.9274 15.0594 76.9306 15.1196 76.9495 15.243C77.0695 16.0343 76.9716 16.8224 77.0095 17.4522ZM79.7976 22.9721C79.6966 22.5321 79.7376 22.0289 79.6745 21.5288C79.6208 21.0984 79.5576 20.6774 79.3903 20.2786C79.1819 19.788 78.7967 19.4937 78.2662 19.538C77.8747 19.5728 77.5589 19.7722 77.341 20.076C77.12 20.3799 76.8864 20.7091 77 21.1363C77.0221 21.2155 77.0095 21.3041 77.0095 21.3895C77.0095 22.8739 77.0095 24.3615 77.0095 25.8459C77.0095 25.9504 77.0127 26.0548 76.9874 26.1593C76.9337 26.3872 76.9716 26.479 77.1705 26.6024C77.3695 26.7258 77.5905 26.786 77.8178 26.8398C78.1525 26.9189 78.462 26.8588 78.7493 26.6815C79.1503 26.4346 79.3366 26.039 79.4724 25.6117C79.7376 24.7698 79.706 23.8931 79.7976 22.9721Z" fill="#3649B8"/>
<path d="M76.5421 1.58896C76.9841 1.58896 77.4262 1.58896 77.8682 1.58896C77.9377 1.58896 78.023 1.56997 78.0608 1.65542C78.0987 1.74404 78.0703 1.82317 78.0009 1.88331C77.884 1.98775 77.7577 2.0827 77.6409 2.18715C77.1894 2.58278 76.8989 3.09552 76.6273 3.61776C76.2137 4.42168 75.8221 5.2351 75.4117 6.04219C75.2317 6.39668 75.0296 6.7385 74.878 7.10882C74.8307 7.22909 74.7959 7.34303 74.7959 7.4728C74.7991 8.65336 74.7928 9.83077 74.8023 11.0113C74.8023 11.2076 74.8338 11.4101 74.8844 11.6C74.9412 11.8153 75.1022 11.9608 75.3232 12.0115C75.4748 12.0463 75.6232 12.1033 75.7874 12.0875C75.8948 12.078 75.9327 12.1476 75.9327 12.2457C75.9327 12.3502 75.879 12.4008 75.7748 12.3976C75.5253 12.385 75.2696 12.4388 75.0233 12.3596C75.0138 12.3565 75.0043 12.3502 74.9949 12.3502C74.0476 12.328 73.1035 12.3185 72.1562 12.3596C71.9415 12.3691 71.7205 12.3913 71.4995 12.4008C71.4679 12.4008 71.4363 12.4008 71.4047 12.3976C71.2942 12.3945 71.2626 12.3312 71.2658 12.2299C71.269 12.1413 71.3068 12.0811 71.3953 12.0875C71.5563 12.0969 71.7079 12.0495 71.8594 12.0147C72.1436 11.945 72.2983 11.7551 72.3362 11.4608C72.4657 10.5176 72.3615 9.57123 72.4025 8.62488C72.412 8.39699 72.3678 8.18494 72.2667 7.9887C71.9889 7.45697 71.7047 6.93157 71.4205 6.40617C71.2247 6.04536 71.0195 5.69087 70.8269 5.33005C70.3754 4.49131 69.927 3.64941 69.4723 2.81067C69.3776 2.63659 69.2734 2.46568 69.1502 2.30742C69.0239 2.13968 68.8818 1.97826 68.6703 1.91496C68.5661 1.88331 68.544 1.82001 68.5503 1.72505C68.5566 1.61111 68.6324 1.59212 68.724 1.59212C68.8282 1.59212 68.9355 1.58263 69.0397 1.59529C70.0123 1.72505 70.9911 1.64593 71.9668 1.6396C72.3078 1.63643 72.6551 1.59212 72.9993 1.59212C73.0688 1.59212 73.1509 1.5763 73.1982 1.65542C73.2614 1.75987 73.1951 1.90546 73.0688 1.89913C72.854 1.88964 72.652 1.94977 72.4467 1.98775C72.0141 2.06688 72.011 2.36123 72.1436 2.64609C72.3046 2.99741 72.5036 3.32974 72.6804 3.67473C73.094 4.47549 73.5013 5.27941 73.915 6.08334C74.0634 6.37136 74.2213 6.65938 74.376 6.94423C74.4644 7.10882 74.5149 7.10882 74.6096 6.95689C74.7044 6.80497 74.7675 6.63722 74.837 6.4758C75.0675 5.94724 75.3548 5.44716 75.6137 4.93126C75.8727 4.41535 76.1095 3.88679 76.2263 3.31708C76.2737 3.0797 76.2705 2.83282 76.2295 2.59544C76.1632 2.2283 75.8727 2.07321 75.5506 1.97509C75.4211 1.93711 75.2854 1.92762 75.1496 1.9023C75.0391 1.88331 74.9822 1.81684 74.9949 1.70606C75.0075 1.58579 75.0991 1.59212 75.1843 1.59212C75.639 1.58896 76.0905 1.58896 76.5421 1.58896Z" fill="#3649B8"/>
<path d="M65.6453 23.0164C65.6643 22.3771 65.7053 21.7345 65.9137 21.13C66.1348 20.4875 66.4947 19.9305 67.0726 19.5285C67.6314 19.1392 68.2503 18.9841 68.9166 18.8955C69.6239 18.8005 70.3027 18.8892 70.95 19.1202C71.9573 19.4779 72.6235 20.1995 72.914 21.244C73.0245 21.6396 73.0845 22.0384 73.1035 22.4498C73.1161 22.7094 73.1761 22.9689 73.154 23.2316C73.0877 24.045 73.0151 24.8585 72.5983 25.5959C72.2162 26.2701 71.6478 26.6942 70.9311 26.9442C70.369 27.1405 69.7944 27.2259 69.2039 27.1911C68.345 27.1405 67.5399 26.9474 66.8515 26.365C66.2295 25.8396 65.9295 25.156 65.778 24.3932C65.6927 23.9406 65.6264 23.4817 65.6453 23.0164ZM70.8237 23.2095C70.8174 22.5954 70.8174 22.127 70.7669 21.6554C70.7037 21.0889 70.609 20.535 70.3911 20.0096C70.2901 19.7627 70.1385 19.5443 69.9301 19.3797C69.7186 19.212 69.4912 19.1234 69.2007 19.2025C68.8629 19.2943 68.6703 19.5317 68.5156 19.8039C68.0893 20.5571 68.0325 21.4054 67.9914 22.2378C67.9472 23.1177 67.963 23.9976 68.0956 24.8774C68.1714 25.3712 68.2851 25.8428 68.5124 26.2827C68.9071 27.0455 69.747 27.0835 70.2238 26.3745C70.3911 26.1276 70.4953 25.8523 70.5616 25.5674C70.7606 24.7414 70.8585 23.9121 70.8237 23.2095Z" fill="#3649B8"/>
<path d="M87.0534 27.1879C86.3367 27.1879 85.7146 27.0898 85.1178 26.8239C84.1706 26.3998 83.6433 25.6402 83.3875 24.6717C83.2107 24.0102 83.157 23.3265 83.2012 22.6429C83.2391 22.07 83.3086 21.4876 83.5233 20.9527C83.7854 20.2976 84.2053 19.7563 84.8242 19.3797C85.3199 19.079 85.8567 18.9714 86.4251 18.8891C87.0471 18.8005 87.6407 18.8733 88.2217 19.0347C89.3648 19.3544 90.1384 20.0697 90.4573 21.2439C90.5804 21.7028 90.6151 22.1681 90.6594 22.6365C90.6972 23.048 90.6593 23.4531 90.6341 23.8551C90.5804 24.7097 90.3215 25.5041 89.7373 26.1561C89.4626 26.4631 89.1153 26.6941 88.7301 26.8397C88.168 27.0581 87.5934 27.2132 87.0534 27.1879ZM85.5378 22.9974C85.5094 23.6747 85.541 24.3109 85.6578 24.9439C85.7494 25.4503 85.8472 25.944 86.1377 26.3903C86.4503 26.8714 86.9808 27.0075 87.4608 26.7005C87.7102 26.5422 87.8207 26.2985 87.9344 26.0548C88.2565 25.368 88.3322 24.621 88.3607 23.8804C88.3859 23.1809 88.408 22.4751 88.3228 21.7725C88.2722 21.3547 88.2249 20.9432 88.1175 20.5381C88.0039 20.1108 87.8554 19.693 87.5018 19.3924C87.2208 19.155 86.8608 19.0537 86.523 19.3006C86.3367 19.4367 86.1756 19.5981 86.0588 19.807C85.7873 20.3039 85.6799 20.8514 85.6073 21.399C85.5315 21.9402 85.4904 22.4846 85.5378 22.9974Z" fill="#3649B8"/>
<path d="M81.6162 11.3721C81.5025 11.5051 81.4172 11.6095 81.3257 11.7076C80.912 12.1634 80.3942 12.385 79.7879 12.4736C79.2827 12.5464 78.8091 12.5021 78.3576 12.2805C77.8176 12.0146 77.5682 11.5526 77.5177 10.9702C77.5082 10.8562 77.524 10.7391 77.5145 10.622C77.4671 9.91305 77.8208 9.42563 78.3734 9.04582C78.7933 8.7578 79.2701 8.59322 79.7437 8.4318C80.23 8.26722 80.7068 8.08048 81.1615 7.84627C81.4488 7.69751 81.6477 7.46013 81.6256 7.08665C81.6035 6.71951 81.6193 6.3492 81.6225 5.98205C81.6256 5.80164 81.6067 5.62756 81.5625 5.45348C81.4299 4.93758 81.051 4.6274 80.5236 4.6274C80.2205 4.6274 79.9142 4.58942 79.6332 4.75401C79.5985 4.77616 79.5511 4.78249 79.5227 4.80781C79.4722 4.85529 79.3711 4.86795 79.3774 4.95657C79.3838 5.04836 79.4753 5.04836 79.5385 5.08001C80.1889 5.39018 80.2931 6.10232 80.0942 6.64355C79.9269 7.09931 79.2354 7.3905 78.7365 7.25757C78.1902 7.11514 77.9281 6.74799 77.8902 6.18778C77.8429 5.50413 78.2249 5.11482 78.7459 4.80465C79.1754 4.55144 79.6522 4.44383 80.1416 4.36154C80.6152 4.28558 81.0857 4.29824 81.553 4.31723C82.0551 4.33622 82.5539 4.44383 82.9771 4.73818C83.4602 5.07368 83.7191 5.54527 83.7664 6.13714C83.9022 7.84943 83.7917 9.56489 83.8296 11.2772C83.8328 11.4133 83.8233 11.5462 83.8738 11.6823C83.9748 11.9577 84.1075 12.021 84.379 11.9007C84.4548 11.8659 84.5306 11.8247 84.6064 11.7931C84.6821 11.7583 84.7548 11.7709 84.799 11.8437C84.8526 11.9292 84.7863 11.983 84.7295 12.0273C84.4611 12.2394 84.1517 12.3533 83.8201 12.4388C83.3718 12.5559 82.9328 12.54 82.4876 12.4261C82.0014 12.3027 81.7488 11.9798 81.673 11.4987C81.6698 11.4671 81.6509 11.4418 81.6162 11.3721ZM81.5656 7.91906C81.373 8.00452 81.2688 8.1691 81.1109 8.27355C80.7857 8.48244 80.4605 8.70083 80.1795 8.96037C79.8763 9.23889 79.6522 9.58705 79.6616 10.0302C79.6648 10.2201 79.6522 10.41 79.6648 10.5967C79.7122 11.3563 80.3847 11.7646 81.0794 11.3911C81.4109 11.2139 81.6572 10.9544 81.6319 10.4923C81.5909 9.74847 81.6225 9.00151 81.6193 8.25456C81.6161 8.15328 81.6446 8.04567 81.5656 7.91906Z" fill="#3649B8"/>
<path d="M104.271 22.6524C104.278 23.5196 104.357 24.1463 104.594 24.7508C104.789 25.2541 105.43 25.9219 106.242 25.9219C107 25.9219 107.599 25.6275 108.051 25.023C108.114 24.9407 108.174 24.8521 108.244 24.7761C108.297 24.716 108.373 24.7065 108.446 24.7413C108.515 24.7761 108.506 24.8458 108.506 24.9091C108.506 25.0294 108.433 25.1275 108.386 25.2319C108.064 25.9504 107.587 26.5422 106.87 26.8936C106.27 27.1911 105.632 27.2481 104.972 27.1373C104.631 27.0803 104.297 27.017 103.984 26.8682C103.457 26.615 103.021 26.2701 102.677 25.7763C102.2 25.0895 102.052 24.3299 102.001 23.5259C101.979 23.1493 101.989 22.7727 102.014 22.3992C102.077 21.4971 102.361 20.6742 103.012 20.0159C103.195 19.8292 103.372 19.6361 103.593 19.4842C104.098 19.136 104.657 18.9809 105.26 18.8891C105.86 18.7974 106.425 18.8891 106.993 19.0316C107.622 19.1898 108.124 19.5253 108.379 20.1552C108.67 20.8736 108.433 21.5826 107.836 21.858C107.486 22.0194 107.113 22.0257 106.744 21.8738C106.131 21.6206 105.891 20.709 106.393 20.1077C106.526 19.9463 106.684 19.8102 106.876 19.7121C107.091 19.6013 107.085 19.5032 106.87 19.3892C106.498 19.1961 106.119 19.174 105.718 19.3164C105.181 19.5063 104.903 19.9368 104.707 20.4147C104.562 20.766 104.442 21.1363 104.395 21.5288C104.341 21.9782 104.265 22.4245 104.271 22.6524Z" fill="#3649B8"/>
<path d="M109.709 26.3618C109.798 25.6496 109.769 24.9343 109.772 24.2222C109.772 24.1367 109.769 24.0449 109.886 24.0354C110 24.0259 110.063 24.0829 110.082 24.1937C110.126 24.4311 110.158 24.6685 110.214 24.9027C110.341 25.4027 110.508 25.8902 110.859 26.2858C111.291 26.7764 111.853 26.9093 112.463 26.7764C112.911 26.6783 113.151 26.3776 113.182 25.8648C113.214 25.33 113.009 24.909 112.649 24.5355C112.305 24.1779 111.901 23.8962 111.528 23.5765C110.988 23.1176 110.398 22.7093 110.041 22.0636C109.88 21.7724 109.76 21.4781 109.772 21.1426C109.779 20.9337 109.747 20.7216 109.794 20.5127C109.921 19.9557 110.271 19.5664 110.742 19.2752C111.247 18.9619 111.818 18.8384 112.393 18.8542C113.009 18.8669 113.621 18.9587 114.158 19.3258C114.43 19.5126 114.622 19.4429 114.761 19.1518C114.79 19.0948 114.809 19.0347 114.834 18.9777C114.875 18.8922 114.954 18.908 115.026 18.9144C115.102 18.9207 115.134 18.9745 115.134 19.0441C115.134 19.2879 115.172 19.5347 115.128 19.7689C115.039 20.231 115.096 20.6931 115.074 21.1521C115.071 21.2375 115.074 21.3198 115.071 21.4053C115.071 21.4876 115.042 21.5477 114.948 21.5572C114.856 21.5635 114.777 21.554 114.752 21.4464C114.711 21.2723 114.673 21.1014 114.629 20.9274C114.502 20.4209 114.291 19.9588 113.899 19.5949C113.489 19.2151 112.999 19.1359 112.491 19.2625C111.822 19.4271 111.702 19.9177 111.818 20.5444C111.872 20.8356 112.062 21.0603 112.27 21.247C112.674 21.611 113.11 21.9433 113.574 22.2282C113.738 22.3295 113.865 22.4687 114.01 22.589C114.518 23.0068 115.033 23.4183 115.311 24.0544C115.566 24.6431 115.494 25.7509 114.938 26.2921C114.474 26.7447 113.937 27.0043 113.315 27.1245C112.497 27.2796 111.711 27.1973 110.972 26.7859C110.852 26.7194 110.723 26.6783 110.6 26.6181C110.382 26.5105 110.262 26.539 110.082 26.8144C110.06 26.8492 110.038 26.8872 110.028 26.9283C110.003 27.0454 109.93 27.0771 109.82 27.0612C109.703 27.0454 109.703 26.96 109.7 26.8745C109.709 26.7004 109.709 26.5295 109.709 26.3618Z" fill="#3649B8"/>
<path d="M92.5384 22.4942C92.5384 21.6111 92.5384 20.7249 92.5384 19.8419C92.5384 19.7786 92.5416 19.7152 92.5384 19.6519C92.5289 19.4272 92.5258 19.4177 92.3079 19.4146C92.0774 19.4082 91.8469 19.4146 91.6132 19.4114C91.5406 19.4114 91.4648 19.4114 91.3954 19.3924C91.3164 19.3734 91.2817 19.3038 91.2849 19.2215C91.288 19.1265 91.348 19.0949 91.4301 19.0949C91.7048 19.0949 91.9764 19.0981 92.2511 19.0917C92.5068 19.0854 92.5384 19.0569 92.5384 18.7942C92.5416 18.31 92.5384 17.8257 92.5416 17.3415C92.5447 17.0788 92.5479 17.0851 92.8036 17.0693C93.372 17.0344 93.9214 16.9173 94.4519 16.7116C94.7077 16.6135 94.7455 16.6356 94.7487 16.9047C94.755 17.4934 94.7487 18.0821 94.7487 18.6739C94.7487 18.7467 94.7519 18.8227 94.7487 18.8955C94.7392 19.0474 94.8182 19.0949 94.9603 19.0949C95.3486 19.0917 95.737 19.0949 96.1285 19.0949C96.2012 19.0949 96.2769 19.0949 96.3496 19.0949C96.4285 19.0949 96.498 19.1076 96.5106 19.2057C96.5201 19.3038 96.479 19.3734 96.3875 19.3987C96.318 19.4146 96.2422 19.4114 96.1696 19.4114C95.8002 19.4114 95.4339 19.4114 95.0645 19.4114C94.755 19.4114 94.7519 19.4146 94.7519 19.7279C94.7519 21.475 94.7519 23.2221 94.7519 24.9692C94.7519 25.2003 94.7613 25.4345 94.7487 25.6624C94.7108 26.3999 95.2444 26.4632 95.7686 26.2954C96.0433 26.2068 96.1506 25.9472 96.318 25.751C96.3433 25.7194 96.3591 25.6782 96.378 25.6402C96.4159 25.5643 96.4727 25.5231 96.5548 25.5706C96.6306 25.6118 96.659 25.6814 96.6274 25.7573C96.5801 25.8745 96.5169 25.9852 96.4632 26.0992C96.1349 26.7828 95.5444 27.0962 94.8371 27.1785C94.2782 27.2449 93.732 27.1531 93.2489 26.8176C92.952 26.6087 92.7658 26.3271 92.6679 25.9821C92.5731 25.6466 92.5321 25.3079 92.5384 24.9566C92.5447 24.1337 92.5384 23.3139 92.5384 22.4942Z" fill="#3649B8"/>
<path d="M130.356 33.3186C131.471 32.3849 133.1 32.5463 133.864 33.6225C134.186 33.1952 134.622 32.942 135.127 32.8122C135.891 32.6128 136.621 32.6729 137.287 33.1414C137.568 33.3408 137.77 33.5971 137.884 33.9295C137.997 34.2618 138.064 34.5941 138.061 34.9455C138.051 35.8918 138.057 36.8413 138.057 37.7877C138.057 38.1232 138.038 38.139 137.697 38.1422C137.562 38.1422 137.423 38.1485 137.287 38.139C137.091 38.1295 137.057 38.0915 137.044 37.889C137.041 37.8162 137.044 37.7402 137.044 37.6674C137.044 36.7938 137.041 35.9203 137.047 35.0467C137.047 34.8315 137 34.6321 136.93 34.4327C136.659 33.6794 135.932 33.575 135.351 33.6858C134.524 33.844 134.205 34.6005 134.205 35.1797C134.208 36.0216 134.208 36.8635 134.205 37.7054C134.205 38.0915 134.155 38.139 133.766 38.139C133.681 38.139 133.599 38.139 133.514 38.139C133.173 38.1327 133.132 38.0947 133.132 37.7592C133.132 36.8318 133.129 35.9076 133.135 34.9803C133.135 34.7777 133.097 34.5815 133.024 34.3979C132.873 34.0118 132.608 33.7617 132.181 33.6826C131.626 33.5813 130.858 33.7269 130.517 34.3536C130.359 34.6448 130.296 34.9644 130.293 35.2936C130.29 36.1039 130.293 36.9141 130.293 37.7244C130.293 37.7972 130.293 37.8731 130.29 37.9459C130.284 38.0725 130.211 38.1358 130.088 38.139C129.889 38.1422 129.687 38.1422 129.488 38.139C129.346 38.139 129.279 38.0599 129.279 37.9174C129.279 37.8541 129.279 37.7908 129.279 37.7275C129.279 36.202 129.279 34.6733 129.279 33.1477C129.279 33.0939 129.283 33.0433 129.279 32.9894C129.267 32.8312 129.327 32.7552 129.494 32.7616C129.671 32.7711 129.851 32.7584 130.031 32.7647C130.249 32.7711 130.277 32.8059 130.29 33.0274C130.296 33.1097 130.274 33.1952 130.312 33.2775C130.318 33.2901 130.328 33.2933 130.356 33.3186Z" fill="#3649B8"/>
<path d="M88.4964 7.96966C88.4964 9.05527 88.4995 10.1377 88.4932 11.2233C88.4932 11.505 88.5848 11.7297 88.7995 11.9165C88.9384 12.0368 89.1058 12.0431 89.2668 12.0779C89.3742 12.1001 89.4468 12.1191 89.4436 12.2457C89.4405 12.3754 89.3615 12.4039 89.2542 12.3976C88.9826 12.3818 88.7079 12.4387 88.4395 12.3501C88.3543 12.3216 88.2532 12.3343 88.1585 12.3343C87.707 12.3343 87.2523 12.3501 86.8039 12.3279C86.4124 12.3121 86.0335 12.4324 85.6451 12.3976C85.5725 12.3912 85.4967 12.4007 85.4241 12.3881C85.3451 12.3754 85.2883 12.3248 85.2883 12.2393C85.2883 12.1539 85.342 12.0937 85.4241 12.0906C85.5535 12.0874 85.6735 12.0463 85.7903 12.0051C86.005 11.9323 86.1535 11.793 86.1945 11.5652C86.2355 11.3404 86.2924 11.1189 86.2892 10.8815C86.2829 9.35596 86.2829 7.8304 86.2861 6.30168C86.2861 6.01682 86.2261 5.74146 86.1756 5.46294C86.1219 5.15592 85.9103 5.004 85.6577 4.88056C85.5819 4.84575 85.4998 4.82676 85.4177 4.8046C85.3262 4.77612 85.2662 4.72231 85.2883 4.62103C85.3167 4.50392 85.4114 4.47544 85.5093 4.50392C85.8724 4.60837 86.2419 4.55773 86.605 4.5514C87.1165 4.53874 87.628 4.49759 88.1332 4.41214C88.4616 4.35833 88.49 4.37416 88.49 4.71598C88.4932 5.59903 88.49 6.48525 88.49 7.3683C88.4964 7.57086 88.4964 7.77026 88.4964 7.96966Z" fill="#3649B8"/>
<path d="M100.142 18.9335C100.195 19.0759 100.173 19.193 100.173 19.3069C100.173 21.4339 100.176 23.5608 100.173 25.6845C100.173 25.8428 100.186 25.9947 100.236 26.1498C100.328 26.4347 100.524 26.5771 100.808 26.6151C100.858 26.6214 100.912 26.6182 100.966 26.6246C101.064 26.6404 101.114 26.6974 101.117 26.7955C101.12 26.9094 101.045 26.9316 100.95 26.9316C100.877 26.9316 100.802 26.9316 100.729 26.9316C99.6238 26.9316 98.5218 26.9316 97.4167 26.9316C97.344 26.9316 97.2683 26.9316 97.1956 26.9316C97.1041 26.9316 97.0251 26.9126 97.0251 26.7955C97.0251 26.6974 97.0788 26.6404 97.1735 26.6214C97.2051 26.6151 97.2367 26.6151 97.2683 26.6151C97.7261 26.5834 97.8966 26.346 97.9629 25.8713C97.9787 25.7573 97.9661 25.6402 97.9661 25.5231C97.9661 23.8931 97.9661 22.2599 97.9661 20.6299C97.9661 20.4622 97.9408 20.2976 97.9124 20.133C97.8366 19.7121 97.584 19.4937 97.1862 19.4114C97.0946 19.3924 97.022 19.3829 97.022 19.269C97.022 19.174 97.0441 19.0981 97.1546 19.0981C97.303 19.0949 97.4482 19.0949 97.5966 19.0949C97.8903 19.0949 98.1839 19.0886 98.4808 19.0949C99.0365 19.1107 99.5827 19.0189 100.142 18.9335Z" fill="#3649B8"/>
<path d="M97.9091 37.3794C97.9091 38.1422 97.9091 38.8353 97.9091 39.5316C97.9091 39.6171 97.9091 39.6994 97.9059 39.7848C97.8996 39.8956 97.8428 39.9589 97.7323 39.9716C97.7102 39.9748 97.6912 39.9748 97.6691 39.9748C96.8955 40.0381 96.8955 40.0381 96.8955 39.2658C96.8955 37.256 96.8955 35.243 96.8955 33.2332C96.8955 33.1699 96.8955 33.1066 96.8955 33.0433C96.9018 32.7774 96.9018 32.7742 97.1544 32.7679C97.3218 32.7648 97.4923 32.7616 97.6596 32.7679C97.8586 32.7774 97.8901 32.8154 97.9059 33.0116C97.9154 33.1256 97.8838 33.2427 97.9312 33.3535C98.0259 33.4041 98.0638 33.3218 98.1175 33.2775C98.689 32.7964 99.3458 32.6476 100.081 32.7363C100.621 32.8027 101.079 33.0211 101.512 33.3313C101.761 33.5117 101.919 33.7617 102.058 34.0149C102.257 34.3821 102.415 34.7777 102.39 35.2145C102.371 35.5278 102.415 35.8412 102.333 36.1545C102.042 37.256 101.322 37.9206 100.227 38.1137C99.5763 38.2276 98.9006 38.1928 98.3322 37.7465C98.2027 37.6516 98.0859 37.5345 97.9091 37.3794ZM99.6678 33.6541C98.5785 33.5845 97.9217 34.4486 97.9154 35.4107C97.9091 36.5407 98.5911 37.2243 99.6268 37.2528C100.596 37.2813 101.367 36.528 101.367 35.4266C101.367 34.4264 100.722 33.6162 99.6678 33.6541Z" fill="#3649B8"/>
<path d="M88.1492 35.8412C88.2692 36.5977 88.7397 36.9901 89.4217 37.1769C89.9838 37.3319 90.5174 37.2465 91.0289 36.9743C91.1521 36.9078 91.2499 36.8129 91.3447 36.7179C91.4268 36.6325 91.5025 36.6198 91.5846 36.7148C91.7204 36.873 91.8562 37.0313 91.992 37.1927C92.0425 37.2528 92.0172 37.313 91.9699 37.3604C91.8499 37.4775 91.7457 37.6105 91.6004 37.7023C91.19 37.9681 90.7511 38.1232 90.2522 38.158C89.7627 38.1928 89.2954 38.158 88.8407 37.9934C87.9124 37.658 87.3251 37.0091 87.1199 36.0343C86.9273 35.1132 87.1451 34.2808 87.7482 33.5719C88.1303 33.1224 88.6418 32.8661 89.2354 32.7616C89.6933 32.6793 90.1322 32.7078 90.5679 32.8344C91.0858 32.9863 91.5152 33.2775 91.8404 33.7111C92.153 34.1226 92.3204 34.5878 92.3582 35.1037C92.3709 35.2905 92.4498 35.4677 92.3709 35.6576C92.3267 35.7621 92.2761 35.8127 92.1656 35.8064C92.093 35.8032 92.0172 35.8064 91.9446 35.8064C90.7984 35.8064 89.6522 35.8064 88.506 35.8064C88.3955 35.8064 88.2787 35.7811 88.1492 35.8412ZM91.3699 35.0056C91.3573 34.5973 91.171 34.2523 90.8742 33.9991C90.3311 33.5402 89.7027 33.4706 89.0523 33.7333C88.5597 33.9327 88.2818 34.3283 88.1429 34.8284C88.1082 34.9518 88.1366 35.0373 88.2882 35.0373C88.3418 35.0373 88.3924 35.0373 88.446 35.0373C89.327 35.0373 90.208 35.0373 91.0889 35.0373C91.1805 35.0404 91.2752 35.0626 91.3699 35.0056Z" fill="#3649B8"/>
<path d="M106.586 35.8032C105.999 35.8032 105.408 35.8001 104.821 35.8032C104.515 35.8032 104.489 35.838 104.597 36.1356C104.811 36.7338 105.269 37.0534 105.869 37.1895C106.58 37.3478 107.221 37.2117 107.764 36.7084C107.833 36.642 107.912 36.6008 107.972 36.7021C108.06 36.8509 108.193 36.9553 108.3 37.0819C108.424 37.2275 108.42 37.3288 108.272 37.4617C107.865 37.8257 107.391 38.0884 106.845 38.1327C106.422 38.1644 105.989 38.1865 105.56 38.0884C104.818 37.9175 104.221 37.5345 103.842 36.873C103.248 35.8349 103.312 34.7967 103.959 33.8092C104.35 33.211 104.935 32.8882 105.645 32.7616C106.071 32.6856 106.472 32.7205 106.883 32.8249C107.817 33.0623 108.354 33.6858 108.645 34.5752C108.736 34.86 108.774 35.1449 108.765 35.4424C108.755 35.7937 108.749 35.8064 108.379 35.8064C107.786 35.8032 107.186 35.8032 106.586 35.8032ZM106.138 35.0436C106.611 35.0436 107.082 35.0468 107.555 35.0405C107.745 35.0373 107.779 34.9898 107.726 34.8062C107.653 34.5657 107.562 34.3283 107.385 34.1384C106.88 33.5972 106.254 33.4643 105.575 33.6858C105.086 33.8441 104.732 34.1859 104.581 34.7018C104.496 34.9961 104.521 35.0405 104.815 35.0436C105.257 35.0436 105.699 35.0436 106.138 35.0436Z" fill="#3649B8"/>
<path d="M143.296 37.6294C143.188 37.6136 143.135 37.6484 143.09 37.6927C142.734 38.0313 142.304 38.1548 141.821 38.1421C141.436 38.1326 141.041 38.1864 140.675 38.0155C140.211 37.8003 139.822 37.4964 139.687 36.9805C139.488 36.2209 139.759 35.6101 140.454 35.2366C140.798 35.0499 141.186 34.9897 141.578 34.9802C142.052 34.9707 142.525 34.9802 142.999 34.9771C143.22 34.9739 143.226 34.9612 143.233 34.7428C143.245 34.1446 142.835 33.6952 142.206 33.6541C141.565 33.6129 140.95 33.6889 140.394 34.0497C140.255 34.1383 140.167 34.1067 140.078 33.9674C139.999 33.844 139.923 33.7174 139.857 33.5876C139.791 33.4578 139.819 33.3534 139.955 33.2679C140.407 32.9831 140.896 32.8375 141.423 32.7552C141.976 32.6697 142.506 32.7014 143.03 32.8786C143.744 33.1223 144.129 33.6287 144.249 34.3757C144.338 34.9233 144.29 35.4676 144.303 36.012C144.316 36.6134 144.306 37.2116 144.306 37.8129C144.306 38.1136 144.281 38.1358 143.981 38.139C143.845 38.1421 143.706 38.1421 143.57 38.139C143.334 38.1295 143.305 38.101 143.296 37.8604C143.293 37.7876 143.296 37.7148 143.296 37.6294ZM143.233 36.1576C143.233 36.1165 143.233 36.0722 143.233 36.031C143.229 35.743 143.229 35.743 142.929 35.7398C142.532 35.7367 142.134 35.7398 141.736 35.7398C141.49 35.7398 141.262 35.819 141.035 35.8949C140.943 35.9266 140.864 35.9804 140.811 36.0595C140.467 36.5501 140.76 37.1293 141.167 37.2527C141.534 37.3635 141.897 37.4047 142.273 37.2907C142.797 37.1356 143.311 36.7622 143.233 36.1576Z" fill="#3649B8"/>
<path d="M120.725 38.1358C120.151 38.1896 119.655 38.0504 119.194 37.7718C118.578 37.3952 118.143 36.873 117.985 36.1545C117.795 35.2936 117.906 34.4802 118.436 33.7585C118.831 33.2205 119.387 32.9103 120.034 32.7774C120.523 32.6761 121.003 32.7077 121.493 32.8248C122.421 33.0401 123.334 34.0212 123.422 35.0689C123.473 35.6892 123.397 36.2558 123.103 36.7938C122.813 37.3224 122.38 37.7054 121.824 37.9522C121.467 38.1073 121.092 38.1864 120.725 38.1358ZM120.681 33.6541C119.595 33.594 118.945 34.4264 118.935 35.4518C118.923 36.4836 119.728 37.2812 120.675 37.2559C121.679 37.2274 122.386 36.5375 122.399 35.4423C122.408 34.3884 121.638 33.5781 120.681 33.6541Z" fill="#3649B8"/>
<path d="M59.5259 33.404C60.1353 32.904 60.7637 32.6761 61.4741 32.7077C62.2098 32.7425 62.8445 32.9894 63.2676 33.6414C63.3781 33.8123 63.457 33.9959 63.4981 34.1921C63.5739 34.5498 63.6339 34.9106 63.6307 35.2809C63.6244 36.0817 63.6307 36.8824 63.6276 37.6832C63.6276 38.101 63.5865 38.1453 63.1823 38.1453C62.4877 38.1453 62.554 38.2149 62.554 37.5218C62.554 36.6577 62.5635 35.7937 62.5477 34.9296C62.5414 34.4897 62.3772 34.0972 61.9919 33.8566C61.4804 33.5401 60.6342 33.5655 60.1195 33.9864C59.7375 34.2966 59.5954 34.7397 59.589 35.2208C59.5796 36.0215 59.5859 36.8223 59.5859 37.6231C59.5859 37.6959 59.589 37.7718 59.5859 37.8446C59.5733 38.0503 59.4975 38.1358 59.2986 38.1453C59.1091 38.1548 58.9196 38.1485 58.7302 38.1485C58.5913 38.1485 58.5155 38.0788 58.5123 37.9364C58.5123 37.8731 58.5123 37.8098 58.5123 37.7465C58.5123 36.2083 58.5123 34.6701 58.5123 33.1318C58.5123 33.0685 58.5155 33.0052 58.5123 32.9419C58.5092 32.8217 58.5723 32.771 58.6891 32.7742C58.9102 32.7742 59.1312 32.7742 59.3522 32.7742C59.4691 32.7742 59.5259 32.828 59.5227 32.9451C59.5259 33.0749 59.5259 33.2078 59.5259 33.404Z" fill="#3649B8"/>
<path d="M74.2372 33.3851C74.4898 33.2142 74.6982 33.0559 74.9382 32.9546C75.816 32.5843 76.6622 32.6065 77.4864 33.1256C77.8305 33.3408 77.9979 33.6763 78.1368 34.0276C78.2315 34.2713 78.2821 34.5277 78.2821 34.7967C78.2757 35.7747 78.2789 36.7559 78.2789 37.7339C78.2789 37.7972 78.2789 37.8605 78.2789 37.9238C78.2789 38.0884 78.1873 38.1453 78.0358 38.1422C77.8684 38.139 77.6979 38.1453 77.5306 38.1422C77.3095 38.1358 77.2716 38.101 77.2685 37.8826C77.2622 37.5471 77.2653 37.2085 77.2653 36.873C77.2653 36.2621 77.2653 35.6513 77.2653 35.0404C77.2653 34.8062 77.2085 34.5878 77.1201 34.3694C76.918 33.8757 76.5233 33.6889 76.0276 33.6573C75.5382 33.6256 75.0898 33.7269 74.7235 34.0846C74.4393 34.3631 74.3004 34.7049 74.3004 35.1006C74.2972 35.9741 74.3004 36.8477 74.2972 37.7212C74.2972 38.0884 74.2436 38.139 73.8773 38.1422C73.7289 38.1422 73.5836 38.1422 73.4352 38.139C73.2931 38.1358 73.2237 38.063 73.2237 37.9206C73.2237 37.8668 73.2237 37.8162 73.2237 37.7624C73.2237 36.2147 73.2237 34.6669 73.2237 33.1192C73.2237 33.0654 73.2268 33.0148 73.2237 32.961C73.2174 32.8344 73.2679 32.7616 73.4068 32.7647C73.6278 32.7679 73.8489 32.7679 74.0699 32.7647C74.1899 32.7647 74.2372 32.828 74.2372 32.942C74.2341 33.0781 74.2372 33.211 74.2372 33.3851Z" fill="#3649B8"/>
<path d="M147.271 33.3787C147.552 33.2141 147.761 33.0242 148.026 32.9198C148.755 32.6318 149.475 32.6254 150.195 32.9388C150.779 33.192 151.098 33.6699 151.247 34.2713C151.307 34.515 151.319 34.7682 151.316 35.0214C151.31 35.9171 151.313 36.8128 151.313 37.7053C151.313 37.7908 151.316 37.8731 151.31 37.9585C151.304 38.0693 151.237 38.1358 151.127 38.139C150.915 38.1453 150.707 38.1421 150.495 38.139C150.369 38.1358 150.306 38.063 150.299 37.9396C150.296 37.8668 150.296 37.7908 150.296 37.718C150.296 36.8666 150.29 36.012 150.299 35.1606C150.303 34.8916 150.239 34.6384 150.154 34.3915C149.987 33.9009 149.595 33.7015 149.115 33.6604C148.888 33.6414 148.661 33.6699 148.43 33.7079C147.83 33.8028 147.316 34.4643 147.331 35.0973C147.35 35.8981 147.335 36.6989 147.335 37.4964C147.335 37.5597 147.338 37.6231 147.335 37.6864C147.319 38.0757 147.252 38.1421 146.867 38.1421C146.731 38.1421 146.593 38.1421 146.457 38.139C146.33 38.1358 146.267 38.0662 146.261 37.9396C146.258 37.8763 146.258 37.813 146.258 37.7497C146.258 36.2019 146.258 34.6542 146.258 33.1065C146.258 33.0432 146.261 32.9799 146.261 32.9166C146.261 32.8312 146.302 32.7742 146.39 32.771C146.621 32.7679 146.855 32.7647 147.085 32.771C147.215 32.7742 147.268 32.8565 147.268 32.9799C147.271 33.1033 147.271 33.2236 147.271 33.3787Z" fill="#3649B8"/>
<path d="M155.591 38.1421C154.884 38.2022 154.237 37.9205 153.684 37.4363C153.22 37.028 152.948 36.4836 152.898 35.8664C152.866 35.474 152.854 35.072 152.945 34.6732C153.173 33.7015 154.104 32.9039 155.099 32.7583C155.553 32.6919 155.989 32.7045 156.434 32.8153C156.978 32.9482 157.404 33.2363 157.745 33.6762C157.836 33.7965 157.817 33.8883 157.71 33.9737C157.637 34.0339 157.559 34.0877 157.476 34.1351C157.35 34.2048 157.243 34.3504 157.094 34.3345C156.952 34.3219 156.908 34.151 156.804 34.0623C156.517 33.8155 156.194 33.6572 155.809 33.6509C155.503 33.6477 155.203 33.6477 154.912 33.7743C154.297 34.0465 153.975 34.5371 153.905 35.1891C153.855 35.6797 153.949 36.1481 154.243 36.5659C154.568 37.0343 155.317 37.3382 155.879 37.2369C156.286 37.1641 156.63 36.9932 156.905 36.6798C157.088 36.4709 157.098 36.4836 157.341 36.6387C157.445 36.7083 157.559 36.7653 157.663 36.8349C157.83 36.9489 157.84 37.0248 157.716 37.1926C157.246 37.8256 156.621 38.1484 155.831 38.1389C155.768 38.1421 155.705 38.1421 155.591 38.1421Z" fill="#3649B8"/>
<path d="M66.7254 35.8728C66.7254 36.5153 66.7254 37.1578 66.7254 37.7972C66.7254 38.1168 66.7033 38.1358 66.3844 38.139C66.2676 38.139 66.1539 38.1422 66.0371 38.139C65.7624 38.1263 65.7119 38.0788 65.7119 37.7972C65.7087 36.6926 65.7119 35.588 65.7119 34.4833C65.7119 34.2839 65.715 34.0845 65.7119 33.882C65.7055 33.6636 65.6992 33.6604 65.4719 33.6509C65.3361 33.6478 65.1972 33.6478 65.0614 33.6509C64.9067 33.6541 64.8277 33.5813 64.8277 33.4231C64.8277 33.2648 64.8309 33.1065 64.8277 32.9483C64.8246 32.8122 64.8909 32.7616 65.0204 32.7616C65.1877 32.7647 65.3582 32.7584 65.5256 32.7616C65.6582 32.7647 65.715 32.7077 65.715 32.5717C65.715 32.3311 65.7245 32.0937 65.7718 31.8532C65.9108 31.1474 66.5202 30.6156 67.2306 30.6125C67.4422 30.6093 67.6506 30.6093 67.8621 30.6125C68.08 30.6188 68.2663 30.7138 68.4526 30.815C68.5094 30.8467 68.5568 30.8973 68.5537 30.9638C68.5505 31.2138 68.4337 31.4259 68.3137 31.6316C68.2758 31.6981 68.2063 31.6633 68.1495 31.6253C68.0358 31.5462 67.9 31.524 67.7674 31.4924C67.1896 31.3594 66.7507 31.6728 66.7349 32.2583C66.7191 32.8533 66.6875 32.7521 67.2022 32.7616C67.4864 32.7647 67.7706 32.7647 68.0548 32.7616C68.1842 32.7616 68.2505 32.809 68.2474 32.9451C68.2442 33.0939 68.2505 33.2395 68.2474 33.3882C68.2379 33.6066 68.2032 33.6414 67.9821 33.6478C67.6664 33.6541 67.3506 33.6478 67.0349 33.6509C66.7349 33.6541 66.7317 33.6541 66.7317 33.9453C66.7254 34.591 66.7254 35.2303 66.7254 35.8728Z" fill="#3649B8"/>
<path d="M115.838 35.8918C115.838 36.5248 115.838 37.1546 115.838 37.7876C115.838 38.0788 115.834 38.0788 115.534 38.082C115.354 38.0852 115.178 38.082 114.998 38.082C114.881 38.082 114.824 38.0282 114.824 37.9111C114.824 37.8383 114.824 37.7623 114.824 37.6895C114.824 36.4773 114.824 35.2683 114.824 34.056C114.824 33.9927 114.818 33.9294 114.824 33.8661C114.84 33.6952 114.748 33.6478 114.597 33.6541C114.448 33.6604 114.303 33.6541 114.155 33.6541C114.012 33.6541 113.956 33.5781 113.94 33.4389C113.87 32.7995 113.886 32.7805 114.533 32.7679C114.821 32.7647 114.821 32.7647 114.827 32.464C114.83 32.2235 114.824 31.9829 114.887 31.7456C115.067 31.0777 115.727 30.6188 116.324 30.6188C116.7 30.6188 117.078 30.5776 117.429 30.7802C117.701 30.9353 117.713 30.9353 117.596 31.2107C117.53 31.3626 117.524 31.5746 117.375 31.6506C117.233 31.7234 117.097 31.5462 116.949 31.505C116.816 31.467 116.684 31.4259 116.548 31.448C116.169 31.505 115.844 31.6601 115.844 32.2171C115.841 32.866 115.762 32.7615 116.39 32.771C116.643 32.7742 116.895 32.7774 117.148 32.771C117.29 32.7679 117.363 32.8185 117.359 32.9704C117.353 33.1192 117.363 33.2648 117.356 33.4135C117.347 33.6098 117.309 33.6509 117.11 33.6572C116.794 33.6636 116.479 33.6572 116.163 33.6604C115.847 33.6604 115.844 33.6636 115.844 33.9706C115.834 34.6068 115.838 35.2493 115.838 35.8918Z" fill="#3649B8"/>
<path d="M84.5274 35.2556C84.5274 35.6861 84.5242 36.1197 84.5274 36.5502C84.5305 36.9806 84.8084 37.2465 85.241 37.256C85.4525 37.2591 85.6546 37.2433 85.8472 37.1357C86.0367 37.0281 86.084 37.0502 86.1535 37.2401C86.1945 37.3604 86.2451 37.4744 86.3051 37.5851C86.3777 37.7212 86.3619 37.8193 86.2166 37.8953C85.9451 38.0377 85.6736 38.1612 85.3515 38.1422C85.0389 38.1232 84.7263 38.1643 84.4232 38.0282C83.9148 37.8004 83.599 37.4364 83.5138 36.8793C83.3906 36.0754 83.4822 35.2651 83.4538 34.4581C83.4475 34.2587 83.4475 34.0593 83.4538 33.8599C83.4569 33.7143 83.4033 33.6446 83.2517 33.651C83.1033 33.6573 82.9581 33.6573 82.8097 33.651C82.6139 33.6415 82.5792 33.6035 82.5697 33.4009C82.5634 33.2743 82.5634 33.1477 82.5697 33.0211C82.5792 32.8059 82.6139 32.7742 82.8381 32.7647C82.9738 32.7584 83.1128 32.7584 83.2486 32.7647C83.3938 32.7711 83.4601 32.7109 83.4538 32.5622C83.4475 32.3533 83.4506 32.1412 83.4538 31.9323C83.4601 31.6601 83.4885 31.6317 83.7695 31.6285C83.9495 31.6253 84.1264 31.6348 84.3063 31.6253C84.4642 31.619 84.5368 31.6791 84.5305 31.8437C84.521 32.0431 84.5274 32.2425 84.5305 32.4419C84.5337 32.7584 84.5337 32.7616 84.8368 32.7616C85.1399 32.7647 85.4462 32.7584 85.7493 32.7647C86.0082 32.7679 86.0398 32.7996 86.0398 33.0591C86.043 33.7048 86.084 33.651 85.4778 33.651C85.2568 33.651 85.0357 33.6478 84.8147 33.651C84.5305 33.6541 84.5274 33.6541 84.5274 33.958C84.5242 34.3948 84.5274 34.8252 84.5274 35.2556Z" fill="#3649B8"/>
<path d="M111.291 33.48C111.547 33.2363 111.761 33.0717 112.005 32.9451C112.311 32.7837 112.649 32.7742 112.974 32.7109C113.113 32.6855 113.192 32.7488 113.185 32.9039C113.179 33.1033 113.176 33.3027 113.185 33.5053C113.192 33.673 113.119 33.7332 112.961 33.7237C112.661 33.7047 112.38 33.7743 112.112 33.9073C111.802 34.0623 111.594 34.2966 111.484 34.6194C111.398 34.8694 111.345 35.1226 111.348 35.3885C111.357 36.1893 111.351 36.99 111.351 37.7876C111.351 38.1231 111.332 38.1389 110.991 38.1421C110.865 38.1421 110.738 38.1453 110.612 38.1421C110.356 38.1326 110.287 38.0566 110.277 37.7939C110.277 37.7528 110.277 37.7085 110.277 37.6673C110.277 36.1734 110.277 34.6764 110.277 33.1825C110.277 33.1097 110.277 33.0337 110.281 32.9609C110.287 32.8343 110.359 32.771 110.483 32.7678C110.694 32.7647 110.903 32.7678 111.114 32.7647C111.256 32.7615 111.294 32.8406 111.291 32.9672C111.288 33.1128 111.291 33.2584 111.291 33.48Z" fill="#3649B8"/>
<path d="M125.939 33.5148C126.179 33.3502 126.318 33.1477 126.523 33.0211C126.876 32.8058 127.268 32.7584 127.663 32.7046C127.817 32.6856 127.896 32.7742 127.893 32.9324C127.89 33.1129 127.899 33.2901 127.89 33.4705C127.881 33.6699 127.843 33.7047 127.644 33.7142C127.467 33.7237 127.293 33.7205 127.113 33.768C126.715 33.8725 126.412 34.0845 126.226 34.458C126.084 34.7429 125.995 35.0435 125.995 35.3664C125.995 36.1671 125.995 36.9679 125.995 37.7687C125.995 38.0567 125.992 38.0535 125.718 38.12C125.604 38.1485 125.487 38.1421 125.373 38.139C125.026 38.1263 124.982 38.0788 124.982 37.7275C124.982 36.1893 124.982 34.6511 124.982 33.116C124.982 33.0622 124.985 33.0116 124.982 32.9578C124.976 32.828 125.032 32.7615 125.168 32.7647C125.358 32.7679 125.547 32.771 125.737 32.7647C125.891 32.7615 125.939 32.8343 125.935 32.9768C125.932 33.1413 125.939 33.3059 125.939 33.5148Z" fill="#3649B8"/>
<path d="M71.206 35.4519C71.206 36.221 71.206 36.9901 71.206 37.7561C71.206 38.0631 71.2028 38.0599 70.9092 38.1264C70.685 38.1739 70.4703 38.1201 70.2587 38.0662C70.1798 38.0473 70.1419 37.9808 70.1356 37.9017C70.1324 37.8289 70.1324 37.7529 70.1324 37.6801C70.1324 36.1735 70.1324 34.6701 70.1324 33.1636C70.1324 33.1098 70.1324 33.0591 70.1324 33.0053C70.1293 32.8534 70.1956 32.7679 70.3566 32.7679C70.5871 32.7679 70.8176 32.7679 71.0513 32.7679C71.1555 32.7679 71.206 32.8217 71.206 32.923C71.206 32.9958 71.2092 33.0718 71.2092 33.1446C71.206 33.9137 71.206 34.6828 71.206 35.4519Z" fill="#3649B8"/>
<path d="M56.498 35.4234C56.498 36.1799 56.498 36.9395 56.498 37.6959C56.498 37.7814 56.4979 37.8637 56.4948 37.9491C56.4916 38.0219 56.4506 38.0726 56.378 38.0726C56.1254 38.0757 55.8728 38.0757 55.6202 38.0726C55.5317 38.0726 55.4907 38.0156 55.4875 37.9301C55.4844 37.8668 55.4844 37.8035 55.4844 37.7402C55.4844 36.1925 55.4844 34.6448 55.4844 33.1003C55.4844 33.037 55.4844 32.9737 55.4875 32.9104C55.4907 32.8249 55.5317 32.7711 55.6202 32.7679C55.8633 32.7648 56.1033 32.7648 56.3464 32.7648C56.4537 32.7648 56.4948 32.8249 56.4948 32.9262C56.4948 32.999 56.498 33.0749 56.498 33.1477C56.498 33.9105 56.498 34.667 56.498 35.4234Z" fill="#3649B8"/>
<path d="M80.2933 35.4107C80.2933 34.6321 80.2933 33.8535 80.2933 33.0749C80.2933 32.7742 80.2965 32.771 80.5838 32.7679C80.7638 32.7647 80.9406 32.771 81.1206 32.7679C81.2564 32.7647 81.3101 32.8312 81.3069 32.9609C81.3037 33.0243 81.3069 33.0876 81.3069 33.1509C81.3069 34.6669 81.3069 36.183 81.3069 37.6959C81.3069 37.7592 81.3037 37.8225 81.3069 37.8858C81.3164 38.0409 81.2343 38.0852 81.0922 38.082C80.8933 38.0757 80.6912 38.0757 80.4922 38.082C80.3407 38.0852 80.287 38.0187 80.2902 37.8731C80.2933 37.5155 80.2902 37.1578 80.2902 36.8002C80.2933 36.3349 80.2933 35.8728 80.2933 35.4107Z" fill="#3649B8"/>
<path d="M87.3188 2.91823C86.8388 2.91507 86.4662 2.81379 86.1505 2.50045C85.699 2.04784 85.8568 0.895761 86.621 0.680537C87.063 0.5571 87.4956 0.528614 87.9124 0.677372C88.3797 0.841955 88.6923 1.23126 88.6892 1.81363C88.686 2.29155 88.2408 2.73466 87.8493 2.84544C87.6598 2.89924 87.464 2.94039 87.3188 2.91823Z" fill="#3649B8"/>
<path d="M99.0207 14.7334C99.2449 14.7113 99.5101 14.7429 99.7627 14.8727C100.186 15.0879 100.438 15.6228 100.35 16.0881C100.265 16.5407 99.9901 16.8065 99.5733 16.949C99.1533 17.0914 98.7334 17.0851 98.3229 16.93C97.5903 16.6546 97.423 15.9361 97.7008 15.3569C97.8808 14.9771 98.225 14.7682 98.6544 14.7366C98.7586 14.7271 98.8628 14.7334 99.0207 14.7334Z" fill="#3649B8"/>
<path d="M55.9894 31.8215C55.601 31.8215 55.2979 31.5272 55.2979 31.1568C55.2979 30.7929 55.6136 30.4922 55.9957 30.4922C56.3777 30.4954 56.6903 30.796 56.6872 31.1632C56.684 31.5335 56.3777 31.8215 55.9894 31.8215Z" fill="#3649B8"/>
<path d="M70.65 31.8215C70.249 31.8184 70.0027 31.5715 70.0059 31.179C70.009 30.7929 70.3153 30.489 70.7069 30.4922C71.0542 30.4954 71.411 30.8467 71.3952 31.1727C71.3794 31.5398 71.051 31.8247 70.65 31.8215Z" fill="#3649B8"/>
<path d="M80.7953 31.8215C80.4322 31.8183 80.1069 31.5208 80.1069 31.1885C80.1069 30.8087 80.4322 30.4858 80.8111 30.4922C81.1489 30.4985 81.512 30.8308 81.4836 31.1537C81.4521 31.5113 81.2058 31.8595 80.7953 31.8215Z" fill="#3649B8"/>
<path d="M0.0568625 8.44123C-0.0220762 7.87152 -0.0126036 7.30181 0.0568625 6.7321C0.0600201 6.66563 0.0600201 6.59917 0.0631776 6.53587C0.120014 6.48522 0.123171 6.42192 0.0947532 6.35546C0.123171 6.31431 0.135801 6.27 0.126329 6.22253C0.268418 5.80474 0.413666 5.38378 0.555756 4.966C0.628379 4.85522 0.697845 4.74128 0.729421 4.60835C0.786257 4.57669 0.817832 4.52605 0.82099 4.45959C1.06412 4.08611 1.32936 3.73162 1.60406 3.38347C1.80615 3.24737 1.97034 3.07646 2.11559 2.88339C2.27346 2.78211 2.41871 2.67133 2.55133 2.5384C2.61764 2.53523 2.65868 2.50042 2.68394 2.44028C2.77867 2.40547 2.86077 2.35482 2.93023 2.28203C2.99654 2.28203 3.04075 2.25038 3.07232 2.19024C3.36282 2.05098 3.65016 1.91488 3.94065 1.77562C4.27535 1.67434 4.61005 1.57306 4.94791 1.47177C4.99211 1.46544 5.03316 1.45595 5.07737 1.44962C5.16578 1.47177 5.24788 1.45595 5.32366 1.40531C5.36786 1.39898 5.41207 1.39581 5.45627 1.38948C5.64573 1.39898 5.83518 1.39898 6.01832 1.34201C6.14778 1.36416 6.28039 1.36416 6.40985 1.34201C6.59299 1.39581 6.78244 1.40531 6.9719 1.38315C7.03505 1.4148 7.0982 1.42113 7.16451 1.40847C7.24029 1.46228 7.32554 1.47177 7.41396 1.45595C7.45816 1.46228 7.49921 1.46861 7.54341 1.4781C7.57815 1.51292 7.6192 1.52874 7.66656 1.50659C7.70445 1.53507 7.74866 1.54457 7.79602 1.53824C7.83075 1.57306 7.8718 1.58888 7.91916 1.56989C7.95705 1.60154 8.00126 1.61104 8.04547 1.60471C8.13703 1.67434 8.24439 1.70282 8.35806 1.71232C8.40227 1.74397 8.44963 1.75979 8.50647 1.75663C8.54752 1.8136 8.60435 1.83892 8.67382 1.83575C9.0843 2.03199 9.47899 2.25987 9.86421 2.50042C9.88947 2.56055 9.93368 2.59537 9.99999 2.6017C10.4389 2.97834 10.8525 3.3803 11.2188 3.82341C11.2251 3.88988 11.2599 3.93419 11.3198 3.95951C11.5219 4.314 11.724 4.66848 11.9261 5.02297C12.0461 5.35846 12.1661 5.69396 12.2829 6.02946C12.2766 6.07693 12.2829 6.12124 12.3145 6.15922C12.2892 6.22886 12.305 6.28899 12.3555 6.3428C12.346 6.39027 12.3524 6.43458 12.3808 6.47573C12.3524 6.56435 12.365 6.64664 12.4187 6.7226C12.406 6.77008 12.4124 6.81439 12.4376 6.85554C12.425 7.12773 12.4187 7.39993 12.485 7.66896C12.4597 7.82088 12.4566 7.9728 12.5071 8.11839C12.4724 8.24816 12.4787 8.3716 12.5481 8.48871C12.5355 8.53618 12.5418 8.58049 12.5702 8.62164C12.5923 9.03626 12.6934 9.42873 12.8923 9.79271C12.8891 9.85285 12.9081 9.90665 12.9523 9.9478C12.9334 10.0174 12.9649 10.0649 13.0218 10.1029C13.0628 10.2801 13.1512 10.4321 13.2491 10.5776C13.2491 10.6441 13.2807 10.6948 13.3407 10.7264C13.347 10.796 13.3849 10.8498 13.4354 10.8942C13.4386 10.9606 13.4701 11.0081 13.5333 11.0366C13.5333 11.0587 13.5428 11.0746 13.5617 11.0841C13.568 11.1505 13.6028 11.1948 13.6627 11.2233C13.6691 11.274 13.6975 11.3119 13.7448 11.3341C13.7512 11.4037 13.7922 11.448 13.8522 11.4734C13.8964 11.5715 13.9627 11.6569 14.0574 11.7139C14.0701 11.7804 14.108 11.8247 14.1743 11.8405C14.2153 11.926 14.2785 11.9893 14.3637 12.0336C14.4174 12.1475 14.4963 12.233 14.6226 12.271C15.1405 12.771 15.7436 13.1318 16.4256 13.3692C16.5835 13.4863 16.7603 13.5433 16.9561 13.556C16.994 13.5876 17.0382 13.6003 17.0887 13.5939C17.1203 13.6351 17.1613 13.6477 17.2118 13.6256C17.2497 13.6541 17.2939 13.6636 17.3444 13.6572C17.376 13.7016 17.4171 13.7079 17.4644 13.6857C17.5055 13.7142 17.5529 13.7237 17.6002 13.7111C17.6918 13.787 17.796 13.787 17.9065 13.7585C17.9475 13.7838 17.9949 13.7902 18.0423 13.7775C18.478 13.8756 18.9138 13.8756 19.3495 13.7807C19.419 13.7965 19.4853 13.7933 19.5453 13.7554C19.6337 13.7838 19.7189 13.7838 19.7916 13.7174C19.861 13.73 19.9273 13.7205 19.9873 13.6794C20.0347 13.7047 20.0757 13.6984 20.1073 13.6541C20.1547 13.6604 20.1989 13.6509 20.2399 13.6224C20.2873 13.6446 20.3283 13.6351 20.3599 13.5939C20.4104 13.6003 20.4546 13.5844 20.4925 13.5528C20.6251 13.5655 20.7388 13.5243 20.8367 13.4325C21.2851 13.3059 21.6924 13.1002 22.0713 12.8312C22.1376 12.828 22.185 12.79 22.2134 12.733C22.2355 12.733 22.2513 12.7267 22.2608 12.7077C22.3271 12.7014 22.3713 12.6666 22.3965 12.6064C22.4471 12.6001 22.4849 12.5716 22.5102 12.5242C22.5765 12.5147 22.6207 12.4767 22.6428 12.4134C23.1922 12.0083 23.6311 11.5018 23.9721 10.91C24.029 10.8783 24.07 10.8372 24.0669 10.7644C24.1427 10.6789 24.2027 10.584 24.2248 10.4669C24.2816 10.4352 24.3132 10.3877 24.3037 10.3213C24.3668 10.239 24.4142 10.1504 24.4205 10.0459C24.4774 10.0048 24.5089 9.95096 24.5026 9.87817C24.5342 9.83386 24.5531 9.78321 24.5468 9.72941C24.6384 9.62813 24.6794 9.50786 24.67 9.37492C24.7047 9.33694 24.7142 9.2958 24.711 9.24516C24.7868 9.13121 24.8184 9.00461 24.7994 8.86851C24.831 8.83053 24.8373 8.78622 24.831 8.73558C24.8815 8.65962 24.8973 8.57733 24.8657 8.48871C24.9036 8.42857 24.9099 8.3621 24.8942 8.29564C24.9573 8.13105 24.9699 7.96647 24.9257 7.79556C24.9763 7.60566 24.9668 7.41259 24.9478 7.21952C25.0078 7.08026 25.0078 6.9315 24.9826 6.7859C25.0205 6.72577 25.0299 6.6593 25.0173 6.58967C25.0678 6.53587 25.0741 6.47256 25.0457 6.4061C25.0741 6.36495 25.0836 6.32064 25.0741 6.27317C25.1215 6.24152 25.131 6.20353 25.0994 6.15606C25.1026 6.12441 25.1089 6.09276 25.112 6.06111C25.2289 5.87753 25.2762 5.66864 25.3046 5.45658C25.3488 5.41227 25.3646 5.35846 25.3646 5.29516C25.4151 5.25718 25.4499 5.20971 25.4309 5.14007C25.4751 5.09893 25.4941 5.04829 25.4941 4.98815C25.5509 4.94701 25.5857 4.89637 25.5793 4.82357C25.6741 4.6938 25.753 4.55454 25.8035 4.39945C25.8604 4.3678 25.8983 4.32349 25.8983 4.25386C25.9172 4.2412 25.9267 4.22537 25.9267 4.20322C25.9867 4.1779 26.0214 4.13042 26.0214 4.06396C26.0403 4.0513 26.053 4.03547 26.053 4.01331C26.113 3.98799 26.1477 3.94052 26.1572 3.87722C26.1951 3.84557 26.2298 3.81075 26.2424 3.75694C26.3024 3.73162 26.3403 3.69048 26.3529 3.62401C26.6498 3.3265 26.9497 3.02898 27.2465 2.7283C27.316 2.71881 27.3602 2.68083 27.3855 2.61752C27.8244 2.31684 28.2822 2.04781 28.7622 1.81676C28.8316 1.82309 28.8853 1.79777 28.9263 1.7408C28.9832 1.74397 29.0337 1.72814 29.0779 1.69649C29.1916 1.69016 29.2989 1.65851 29.3905 1.58888C29.4379 1.59521 29.4821 1.58572 29.52 1.5509C29.5673 1.56989 29.6084 1.55406 29.6431 1.51925C29.6905 1.52558 29.7347 1.51608 29.7726 1.4876C29.8199 1.50975 29.861 1.49393 29.8957 1.45911C29.9399 1.45278 29.981 1.44645 30.0252 1.44012C30.1136 1.45595 30.1957 1.44329 30.2715 1.39265C30.3378 1.40531 30.4041 1.40214 30.4672 1.36733C30.6377 1.39265 30.8019 1.38315 30.9661 1.32935C31.1177 1.3515 31.2692 1.3515 31.4208 1.32935C31.585 1.38315 31.7524 1.39265 31.9197 1.36733C31.9797 1.39898 32.046 1.40531 32.1123 1.39265C32.1881 1.44329 32.2734 1.45595 32.3618 1.43696C32.406 1.44329 32.447 1.45278 32.4912 1.45911C32.6081 1.52874 32.7344 1.5509 32.867 1.54773C32.9049 1.57939 32.9491 1.59205 32.9964 1.58572C33.088 1.65535 33.1954 1.68383 33.309 1.69333C33.3532 1.72814 33.4038 1.7408 33.4606 1.73764C33.5016 1.79461 33.5553 1.81993 33.6248 1.81043C33.9342 1.97185 34.2468 2.13644 34.5563 2.29785C34.5847 2.35799 34.632 2.38964 34.6984 2.3928C35.1846 2.75679 35.6267 3.16824 36.0372 3.61452C36.0466 3.68415 36.0845 3.72846 36.1445 3.75378C36.1571 3.80442 36.1887 3.8424 36.2329 3.87089C36.2361 3.93735 36.274 3.98166 36.334 4.01015C36.334 4.0323 36.3434 4.0513 36.3655 4.06079C36.3655 4.12726 36.4034 4.17157 36.4603 4.20005C36.4603 4.22221 36.4697 4.2412 36.4887 4.25069C36.4887 4.32033 36.5266 4.36464 36.5834 4.39945C36.7066 4.64633 36.8329 4.89004 36.956 5.13691C36.9402 5.20654 36.9686 5.25402 37.0223 5.292C37.0223 5.35213 37.0349 5.40911 37.0791 5.45342C37.0791 5.58635 37.117 5.70979 37.2054 5.81107C37.1991 5.90918 37.2149 6.00097 37.2686 6.08643C37.2465 6.1339 37.2623 6.17505 37.2939 6.20986C37.3033 6.25418 37.3128 6.29532 37.3191 6.33963C37.297 6.42825 37.316 6.51055 37.3633 6.58651C37.3696 6.63082 37.376 6.67513 37.3823 6.71627C37.3602 6.84604 37.3791 6.96948 37.4233 7.09292C37.4233 7.41259 37.4233 7.73226 37.4233 8.05193C37.3759 8.19436 37.357 8.33995 37.3759 8.49187C37.3696 8.53618 37.3633 8.57733 37.357 8.62164C37.316 8.67861 37.297 8.73875 37.3254 8.80838C37.297 8.84636 37.2907 8.89067 37.297 8.93814C37.196 9.25148 37.0823 9.56166 37.0128 9.8845C36.9686 9.92564 36.9528 9.97945 36.956 10.0396C36.8234 10.1978 36.7413 10.3814 36.6876 10.5808C36.5266 10.8308 36.3687 11.0809 36.2077 11.3309C36.1445 11.3562 36.1066 11.4006 36.1003 11.4702C35.8856 11.7044 35.6709 11.9386 35.4562 12.1697C35.3899 12.1823 35.3456 12.2203 35.3267 12.2868C34.992 12.5273 34.6541 12.7679 34.3194 13.0084C34.2531 13.0116 34.2026 13.0432 34.1679 13.1002C34.0384 13.1318 33.9279 13.2015 33.8142 13.2679C33.5553 13.3502 33.3027 13.442 33.0596 13.5655C33.0122 13.5623 32.968 13.5718 32.9301 13.6034C32.7975 13.6003 32.6712 13.6193 32.5575 13.6984C32.5102 13.6889 32.466 13.6984 32.4249 13.7269C32.3586 13.7016 32.2955 13.7047 32.2418 13.7617C32.1723 13.749 32.106 13.7554 32.046 13.7933C31.9197 13.768 31.7934 13.7617 31.6766 13.8313C31.3356 13.8408 30.9977 13.8503 30.6567 13.8598C30.4262 13.825 30.1957 13.8123 29.9715 13.8915C29.8389 13.863 29.7126 13.8883 29.5863 13.9199C29.46 13.8915 29.3337 13.882 29.2137 13.9516C29.1 13.9294 28.9958 13.9611 28.8885 13.9896C28.8032 13.9548 28.7243 13.9611 28.658 14.0339C28.5853 14.0086 28.5159 14.0244 28.4464 14.0497C28.3611 14.0181 28.2822 14.0276 28.2159 14.1004C28.0359 14.094 27.8559 14.1067 27.6886 14.1795C27.6444 14.1605 27.6033 14.1637 27.5686 14.1985C27.2434 14.2396 26.9245 14.3029 26.6182 14.4169C26.5708 14.3947 26.5298 14.4105 26.495 14.4453C26.4477 14.439 26.4035 14.4485 26.3656 14.4833C26.3182 14.4643 26.2772 14.4802 26.2424 14.5118C26.1951 14.5086 26.1509 14.5181 26.113 14.553C25.8667 14.5719 25.6393 14.6542 25.4215 14.7619C25.3741 14.7587 25.3299 14.7682 25.292 14.803C25.2225 14.784 25.1689 14.8093 25.1278 14.8631C25.071 14.8568 25.0236 14.8758 24.9762 14.9043C24.7836 14.9423 24.5942 14.9929 24.4363 15.1163C24.3763 15.11 24.3258 15.129 24.2816 15.1701C24.209 15.1543 24.1616 15.1891 24.1206 15.2429C24.0606 15.2398 24.01 15.2588 23.9658 15.2999C23.8458 15.2936 23.7574 15.3506 23.6785 15.4328C23.6185 15.4328 23.5648 15.4487 23.5238 15.493C23.4069 15.4866 23.3217 15.5436 23.2459 15.6227C23.0312 15.6892 22.8323 15.7968 22.6397 15.9139C22.5291 15.9298 22.4344 15.9772 22.3618 16.0659C22.2071 16.1102 22.0745 16.1956 21.945 16.2906C21.8755 16.2906 21.8282 16.3254 21.7966 16.3824C21.7271 16.3887 21.6766 16.4267 21.6292 16.4773C21.5598 16.4773 21.5124 16.5153 21.4777 16.5723C21.4082 16.5818 21.3577 16.6197 21.3135 16.6704C21.244 16.6704 21.1998 16.7052 21.1682 16.7653C20.5936 17.1008 20.0505 17.4838 19.5484 17.9237C19.479 17.9332 19.4379 17.9712 19.4126 18.0345C19.3116 18.0788 19.2264 18.1421 19.1695 18.2371C19.1 18.2497 19.059 18.2877 19.0337 18.351C18.9106 18.4175 18.8096 18.5093 18.7275 18.6201C18.6327 18.6454 18.5696 18.7055 18.5348 18.7973C18.1623 19.098 17.8276 19.4335 17.5213 19.8038C17.4108 19.8608 17.3223 19.9431 17.2813 20.0665C17.1645 20.1424 17.0824 20.2501 17.0129 20.3703C16.9498 20.3957 16.9087 20.44 16.8961 20.5064C16.7161 20.6678 16.5677 20.8546 16.4414 21.0635C16.3814 21.0888 16.3435 21.1331 16.334 21.2027C16.2204 21.3072 16.1288 21.4306 16.0625 21.5699C16.0025 21.5952 15.9646 21.6395 15.9614 21.7092C15.7088 22.0193 15.4815 22.3453 15.3047 22.703C15.2447 22.7315 15.2131 22.7789 15.2099 22.8486C15.0963 23.0005 14.9858 23.1556 14.9289 23.3392C14.8689 23.3676 14.8405 23.4151 14.8468 23.4816C14.6037 23.8709 14.3827 24.276 14.228 24.7096C13.9059 25.254 13.6943 25.8459 13.5143 26.4504C13.4701 26.5295 13.4291 26.6118 13.4322 26.7068C13.3944 26.7416 13.3786 26.7796 13.3912 26.8302C13.347 26.8935 13.328 26.9631 13.3407 27.0391C13.1923 27.286 13.126 27.555 13.1007 27.8399C13.0691 27.8778 13.0565 27.9253 13.0628 27.9728C13.0218 28.0045 13.0123 28.0456 13.0376 28.0931C13.0091 28.1342 12.9965 28.1785 13.0028 28.226C12.927 28.3621 12.886 28.5045 12.9081 28.6596C12.8797 28.7008 12.8702 28.7451 12.8765 28.7926C12.8197 28.8432 12.8165 28.9065 12.8418 28.9761C12.8134 29.0173 12.8039 29.0616 12.8134 29.1122C12.7565 29.1629 12.7534 29.2262 12.7818 29.2926C12.7439 29.3528 12.7344 29.4192 12.7471 29.4889C12.6807 29.5617 12.6807 29.6471 12.706 29.7357C12.6807 29.7769 12.6744 29.8244 12.6871 29.8718C12.6176 29.9668 12.6208 30.0712 12.646 30.1788C12.6113 30.2421 12.605 30.3086 12.6208 30.3751C12.5513 30.4922 12.5513 30.6188 12.5797 30.7454C12.5418 30.8277 12.5355 30.9163 12.5544 31.0049C12.485 31.1885 12.485 31.3752 12.5197 31.5651C12.4629 31.8183 12.4692 32.0747 12.4913 32.3311C12.4281 32.6413 12.4376 32.9578 12.4502 33.2711C12.4155 33.3344 12.4092 33.3977 12.425 33.4673C12.3682 33.5433 12.3587 33.6256 12.3808 33.7142C12.3555 33.7554 12.3492 33.7997 12.3587 33.844C12.2418 34.2206 12.125 34.6004 12.0082 34.9771C11.885 35.2239 11.7651 35.4708 11.6419 35.7177C11.5819 35.7462 11.5503 35.7937 11.5503 35.8601C11.4777 35.9298 11.4272 36.0121 11.3925 36.107C11.3325 36.1323 11.2977 36.1735 11.2946 36.2399C11.143 36.395 11.0136 36.5691 10.8873 36.7432C10.7988 36.7812 10.7357 36.8413 10.7041 36.9362C10.5147 37.1103 10.3252 37.2812 10.1326 37.4553C10.0631 37.4616 10.0189 37.4996 9.99683 37.5629C9.78843 37.699 9.58004 37.8383 9.37164 37.9744C9.30533 37.9776 9.25797 38.006 9.22639 38.063C9.05272 38.1168 8.89485 38.2054 8.74013 38.2941C8.67066 38.2909 8.61698 38.3162 8.57593 38.3732C8.5191 38.3732 8.46858 38.3858 8.42437 38.4238C8.24755 38.4523 8.0802 38.5029 7.92232 38.5884C7.87496 38.5821 7.83075 38.5916 7.79286 38.6232C7.7455 38.6011 7.70445 38.6169 7.66972 38.6517C7.62235 38.6454 7.58131 38.6517 7.54026 38.677C7.47079 38.6549 7.4108 38.6707 7.35396 38.715C7.30976 38.7213 7.26555 38.7277 7.2245 38.734C7.11715 38.7182 7.00979 38.7182 6.91506 38.7815C6.82665 38.7656 6.7414 38.7688 6.65614 38.8005C6.38144 38.7783 6.10673 38.7751 5.83202 38.8036C5.74677 38.7656 5.66151 38.7656 5.5731 38.7815C5.47522 38.7245 5.37102 38.715 5.26366 38.7403C5.22261 38.715 5.17841 38.7087 5.13105 38.715C4.90686 38.639 4.67952 38.5789 4.4427 38.5568C4.31324 38.4935 4.18378 38.4396 4.03853 38.4301C3.99749 38.3732 3.94381 38.3479 3.87434 38.3542C3.31861 38.101 2.79446 37.7908 2.30188 37.43C2.27978 37.3667 2.23557 37.3255 2.16926 37.3161C1.69563 36.8634 1.24726 36.3855 0.909401 35.819C0.839935 35.7019 0.767311 35.5879 0.697845 35.474C0.656797 35.3189 0.596804 35.1733 0.483132 35.053C0.486289 34.9961 0.467344 34.9486 0.432611 34.9043C0.378933 34.6637 0.306309 34.4327 0.195795 34.2143C0.20211 34.1668 0.192637 34.1225 0.161062 34.0814C0.186322 34.0339 0.176849 33.9927 0.132644 33.9611C0.142116 33.9136 0.132644 33.8693 0.101068 33.8282C0.123171 33.7395 0.123171 33.6572 0.0568625 33.5844C0.0568625 33.5401 0.053705 33.4927 0.053705 33.4484C-0.0189187 32.8565 -0.0220762 32.2678 0.053705 31.6759C0.0568626 31.6095 0.0600201 31.5462 0.0631776 31.4797C0.120014 31.4259 0.123171 31.3657 0.0979107 31.2961C0.126329 31.255 0.135801 31.2107 0.129486 31.1632C0.170534 31.1315 0.180007 31.0904 0.154747 31.0429C0.186322 31.0049 0.198952 30.9574 0.18948 30.91C0.233685 30.8783 0.246316 30.8403 0.221055 30.7897C0.290521 30.6599 0.341042 30.527 0.350515 30.3782C0.514707 30.1092 0.634694 29.818 0.751524 29.5237C1.07044 29.0141 1.41145 28.5235 1.84719 28.1026C3.02496 26.96 4.43323 26.3491 6.06884 26.3111C7.16135 26.2858 8.20334 26.0959 9.16324 25.561C11.0451 24.5102 12.1503 22.915 12.4124 20.7691C12.8197 17.4395 10.4578 14.2713 6.92138 13.8598C6.54563 13.8155 6.16357 13.8313 5.78782 13.7965C3.43544 13.5718 1.71458 12.407 0.618907 10.3086C0.574701 10.2263 0.530495 10.1409 0.486289 10.0586C0.363145 9.68193 0.243158 9.30529 0.120014 8.92865C0.129486 8.87801 0.116856 8.8337 0.088438 8.79255C0.116856 8.72609 0.113698 8.66595 0.0568625 8.61214C0.0600201 8.57416 0.0568625 8.5077 0.0568625 8.44123ZM31.165 10.7169C32.8859 10.7232 34.291 9.33378 34.2973 7.61832C34.3068 5.88386 32.9049 4.47541 31.1745 4.47541C29.4568 4.47541 28.0612 5.87437 28.058 7.59299C28.058 9.31162 29.4473 10.7106 31.165 10.7169ZM3.11337 7.60249C3.11653 9.32745 4.50269 10.7137 6.22356 10.7169C7.95074 10.7201 9.35901 9.30529 9.34638 7.57717C9.33375 5.86171 7.93179 4.47225 6.21409 4.47541C4.49954 4.47858 3.11337 5.87753 3.11337 7.60249ZM3.11337 32.559C3.11021 34.2934 4.48375 35.686 6.20146 35.6924C7.94127 35.6987 9.35269 34.2998 9.34638 32.5748C9.34006 30.8593 7.93811 29.4477 6.23303 29.4477C4.51848 29.4477 3.11653 30.8435 3.11337 32.559Z" fill="#3649B8"/>
<path d="M37.4202 29.0964C37.3981 34.727 32.8512 39.2562 27.2339 39.2341C21.6387 39.2151 17.1203 34.6511 17.1392 29.0394C17.1582 23.4404 21.7208 18.9112 27.3223 18.9302C32.9017 18.9492 37.4391 23.5196 37.4202 29.0964ZM20.2715 29.0806C20.2684 32.9641 23.3912 36.0975 27.2686 36.1038C31.124 36.1102 34.2847 33.0084 34.2942 29.1027C34.3037 25.1907 31.1714 22.0795 27.3097 22.0605C23.4133 22.0478 20.2715 25.1844 20.2715 29.0806Z" fill="#3649B8"/>
<path d="M44.6258 37.8193C44.8248 37.8193 44.9826 37.6579 44.9826 37.4616V0.357652C44.9826 0.158253 44.8216 0 44.6258 0C44.4269 0 44.269 0.161418 44.269 0.357652V37.4616C44.269 37.661 44.4301 37.8193 44.6258 37.8193Z" fill="#3649B8"/>
</g>
<defs>
<clipPath id="clip0_3_4070">
<rect width="164" height="40" fill="white"/>
</clipPath>
</defs>
</svg>
